<svg width="300" height="300" viewBox="0 0 300 300" fill="none" xmlns="http://www.w3.org/2000/svg">
<path d="M225.697 253.417C246.996 237.4 262.719 215.09 270.641 189.644C278.562 164.199 278.281 136.907 269.837 111.63C261.393 86.3529 245.214 64.3714 223.589 48.796C201.965 33.2205 175.99 24.8398 149.34 24.8398C122.69 24.8398 96.7149 33.2205 75.0903 48.796C53.4657 64.3714 37.2868 86.3529 28.8429 111.63C20.399 136.907 20.1179 164.199 28.0392 189.644C35.9606 215.09 51.6832 237.4 72.9824 253.417H225.697Z" fill="#D6FFF0"/>
<path d="M291.465 223.875C291.465 202.342 228.465 184.875 150.682 184.875C72.8998 184.875 9.94482 202.342 9.94482 223.875V235.717C9.94482 257.257 72.9448 274.717 150.72 274.717C228.495 274.717 291.502 257.257 291.502 235.717L291.465 223.875Z" fill="#C18063"/>
<path d="M190.117 268.747C198 263.415 188.933 261.997 180.21 261.112C172.08 261.592 148.23 262.042 139.605 262.117C155.047 266.452 178.252 274.207 190.117 268.747Z" stroke="#FFDBB1" stroke-linecap="round" stroke-linejoin="round"/>
<path d="M68.1601 266.25C68.5971 265.483 68.7889 264.6 68.7098 263.721C68.6307 262.841 68.2845 262.007 67.7176 261.33C65.0851 257.768 48.5176 262.365 47.7451 256.575C48.0676 255.195 49.3126 255.075 50.2801 255.158C70.3951 256.35 82.3276 260.715 98.4076 270.863" stroke="#FFDBB1" stroke-linecap="round" stroke-linejoin="round"/>
<path d="M10.7852 238.957C15.9077 241.912 22.4852 242.662 27.5552 245.445C36.1202 248.685 15.6827 248.362 35.8052 255.877C37.6665 256.661 39.3907 257.737 40.9127 259.065" stroke="#FFDBB1" stroke-linecap="round" stroke-linejoin="round"/>
<path d="M146.363 273.39C140.58 269.333 119.445 269.985 109.185 268.14C107.685 267.87 105 263.325 111.383 262.605C112.943 262.425 116.925 261.038 118.395 260.708C113.287 260.355 105.81 259.403 100.957 258.9C99.6975 261.405 98.085 264.668 95.2875 263.183C93.255 261.683 90.8925 258.908 88.815 257.498C71.565 255.173 56.6175 253.2 44.235 249.173C45.9075 261.36 38.3325 250.328 29.0925 242.033C23.6925 239.46 21.0675 238.53 17.79 235.605C16.245 235.208 13.425 234.675 11.9475 234.945C11.3329 234.903 10.7231 234.808 10.125 234.66" stroke="#FFDBB1" stroke-linecap="round" stroke-linejoin="round"/>
<path d="M291.12 237.12C289.245 236.475 287.04 235.762 284.468 234.982" stroke="#FFDBB1" stroke-linecap="round" stroke-linejoin="round"/>
<path d="M258.458 260.003C264.638 251.655 245.67 257.955 241.665 257.333C241.568 257.333 241.538 257.123 241.628 257.055C251.933 248.573 272.91 246.368 286.673 244.785" stroke="#FFDBB1" stroke-linecap="round" stroke-linejoin="round"/>
<path d="M206.663 259.433C213.675 262.073 220.448 265.493 227.618 267.315" stroke="#FFDBB1" stroke-linecap="round" stroke-linejoin="round"/>
<path d="M211.582 265.275C207.592 260.527 191.137 264.45 203.602 268.455C204.397 268.567 209.31 269.062 209.122 266.895C207.427 265.792 204.382 264.922 202.927 265.912" stroke="#FFDBB1" stroke-linecap="round" stroke-linejoin="round"/>
<path d="M220.853 259.77C245.678 271.208 245.333 253.02 233.835 259.77" stroke="#FFDBB1" stroke-linecap="round" stroke-linejoin="round"/>
<path d="M150.367 261.9C227.747 261.9 290.475 244.342 290.475 222.682C290.475 201.023 227.747 183.465 150.367 183.465C72.988 183.465 10.2598 201.023 10.2598 222.682C10.2598 244.342 72.988 261.9 150.367 261.9Z" fill="white" stroke="white" stroke-width="1.26" stroke-miterlimit="10"/>
<path d="M244.477 227.895L51.9898 228.27C48.9523 228.27 44.3248 227.167 46.7398 223.267L73.0648 199.59L228.502 199.95L252.225 223.357C255.577 226.965 248.445 227.887 244.477 227.895Z" fill="#E8E5E5"/>
<path d="M225.75 86.4824H77.3849C75.7943 86.4824 74.5049 87.7718 74.5049 89.3624V194.107C74.5049 195.698 75.7943 196.987 77.3849 196.987H225.75C227.34 196.987 228.63 195.698 228.63 194.107V89.3624C228.63 87.7718 227.34 86.4824 225.75 86.4824Z" fill="#383434"/>
<path d="M225.48 192.457V90.9975C225.48 90.2395 224.865 89.625 224.107 89.625L79.0275 89.625C78.2694 89.625 77.655 90.2395 77.655 90.9975V192.457C77.655 193.215 78.2694 193.83 79.0275 193.83H224.107C224.865 193.83 225.48 193.215 225.48 192.457Z" fill="#F9F1EC"/>
<path d="M225.488 90.9078C225.488 90.5697 225.353 90.2454 225.114 90.0063C224.875 89.7671 224.551 89.6328 224.213 89.6328H78.9451C78.6063 89.6328 78.2812 89.7669 78.0409 90.0058C77.8006 90.2447 77.6646 90.569 77.6626 90.9078V101.708H225.488V90.9078Z" fill="#EA1717"/>
<path d="M236.55 224.618H62.5503C57.6678 224.618 53.0103 220.665 53.0103 215.783V215.138C53.0103 212.843 54.2777 211.2 55.8527 211.2L242.55 210.293C243.458 210.293 245.91 212.595 245.91 215.003V215.753C245.895 220.665 241.425 224.618 236.55 224.618Z" fill="#383434"/>
<path d="M243.382 211.98H55.0425C55.0257 211.981 55.009 211.976 54.9948 211.967C54.9806 211.958 54.9695 211.945 54.963 211.93C54.9565 211.914 54.9548 211.897 54.9583 211.88C54.9618 211.864 54.9702 211.849 54.9825 211.838L74.5575 191.25L228.517 191.685L243.652 211.425C243.695 211.475 243.721 211.536 243.729 211.601C243.738 211.666 243.727 211.732 243.698 211.79C243.669 211.849 243.624 211.898 243.568 211.932C243.512 211.966 243.448 211.982 243.382 211.98Z" fill="#454545" stroke="#706E6E" stroke-miterlimit="10"/>
<path d="M86.1673 196.95L85.3198 199.95H186.532L186.015 196.95H86.1673Z" fill="#706E6E"/>
<path d="M226.208 196.95H189.015L189.533 199.95H228.51L226.208 196.95Z" fill="#706E6E"/>
<path d="M69.0751 203.925L65.6626 206.925H117.968V203.925H69.0751Z" fill="#706E6E"/>
<path d="M120.015 203.925V206.925H166.515V203.925H120.015Z" fill="#706E6E"/>
<path d="M232.073 203.925H169.515V206.925H234.765L232.073 203.925Z" fill="#706E6E"/>
<path d="M74.7975 196.95L71.73 199.95H82.7775L84.2775 196.95H74.7975Z" fill="#706E6E"/>
<path d="M144.142 109.095H89.1299C87.092 109.095 85.4399 110.747 85.4399 112.785V179.775C85.4399 181.813 87.092 183.465 89.1299 183.465H144.142C146.18 183.465 147.832 181.813 147.832 179.775V112.785C147.832 110.747 146.18 109.095 144.142 109.095Z" fill="white"/>
<path d="M214.215 109.095H159.203C157.165 109.095 155.513 110.747 155.513 112.785V120.382C155.513 122.42 157.165 124.072 159.203 124.072H214.215C216.253 124.072 217.905 122.42 217.905 120.382V112.785C217.905 110.747 216.253 109.095 214.215 109.095Z" fill="white"/>
<path d="M214.215 131.303H159.203C157.165 131.303 155.513 132.955 155.513 134.993V142.59C155.513 144.628 157.165 146.28 159.203 146.28H214.215C216.253 146.28 217.905 144.628 217.905 142.59V134.993C217.905 132.955 216.253 131.303 214.215 131.303Z" fill="white"/>
<path d="M214.215 153.022H159.203C157.165 153.022 155.513 154.675 155.513 156.712V179.775C155.513 181.813 157.165 183.465 159.203 183.465H214.215C216.253 183.465 217.905 181.813 217.905 179.775V156.712C217.905 154.675 216.253 153.022 214.215 153.022Z" fill="white"/>
<path d="M161.49 158.798H211.215" stroke="#706E6E" stroke-width="2" stroke-miterlimit="10" stroke-linecap="round"/>
<path d="M161.49 165.69H202.335" stroke="#706E6E" stroke-width="2" stroke-miterlimit="10" stroke-linecap="round"/>
<path d="M161.49 172.357H191.723" stroke="#706E6E" stroke-width="2" stroke-miterlimit="10" stroke-linecap="round"/>
<path d="M91.7773 115.808H141.495" stroke="#706E6E" stroke-width="2" stroke-miterlimit="10" stroke-linecap="round"/>
<path d="M91.7773 122.707H107.782" stroke="#706E6E" stroke-width="2" stroke-miterlimit="10" stroke-linecap="round"/>
<path d="M112.583 122.707H138.218" stroke="#706E6E" stroke-width="2" stroke-miterlimit="10" stroke-linecap="round"/>
<path d="M91.7773 129.367H131.797" stroke="#706E6E" stroke-width="2" stroke-miterlimit="10" stroke-linecap="round"/>
<path d="M91.7773 158.798H131.797" stroke="#706E6E" stroke-width="2" stroke-miterlimit="10" stroke-linecap="round"/>
<path d="M91.7773 165.69H141.495" stroke="#706E6E" stroke-width="2" stroke-miterlimit="10" stroke-linecap="round"/>
<path d="M101.85 137.58H94.5973C93.0399 137.58 91.7773 138.843 91.7773 140.4V147.653C91.7773 149.21 93.0399 150.473 94.5973 150.473H101.85C103.407 150.473 104.67 149.21 104.67 147.653V140.4C104.67 138.843 103.407 137.58 101.85 137.58Z" stroke="#706E6E" stroke-width="2" stroke-miterlimit="10" stroke-linecap="round"/>
<path d="M120.262 137.58H113.01C111.452 137.58 110.19 138.843 110.19 140.4V147.653C110.19 149.21 111.452 150.473 113.01 150.473H120.262C121.82 150.473 123.082 149.21 123.082 147.653V140.4C123.082 138.843 121.82 137.58 120.262 137.58Z" stroke="#706E6E" stroke-width="2" stroke-miterlimit="10" stroke-linecap="round"/>
<path d="M138.675 137.88H131.423C129.865 137.88 128.603 139.142 128.603 140.7V147.952C128.603 149.51 129.865 150.772 131.423 150.772H138.675C140.232 150.772 141.495 149.51 141.495 147.952V140.7C141.495 139.142 140.232 137.88 138.675 137.88Z" stroke="#706E6E" stroke-width="2" stroke-miterlimit="10" stroke-linecap="round"/>
<path d="M151.575 178.058C157.509 178.058 163.309 176.298 168.242 173.002C173.176 169.705 177.021 165.02 179.292 159.538C181.562 154.056 182.156 148.024 180.999 142.205C179.841 136.385 176.984 131.04 172.788 126.844C168.593 122.649 163.247 119.792 157.428 118.634C151.608 117.477 145.576 118.071 140.095 120.341C134.613 122.612 129.928 126.457 126.631 131.391C123.335 136.324 121.575 142.124 121.575 148.058C121.575 156.014 124.736 163.645 130.362 169.271C135.988 174.897 143.619 178.058 151.575 178.058Z" fill="#24BC97"/>
<path d="M135.195 149.385L142.185 156.548C142.539 156.909 142.962 157.195 143.43 157.388C144.374 157.777 145.433 157.777 146.377 157.388C146.845 157.195 147.268 156.909 147.622 156.548L166.89 137.303" stroke="white" stroke-width="4" stroke-miterlimit="10"/>
</svg>
