<svg width="36" height="36" viewBox="0 0 36 36" fill="none" xmlns="http://www.w3.org/2000/svg">
<rect x="3" y="6" width="30" height="24" rx="6" stroke="#706E6E" stroke-width="1.5"/>
<path d="M5 9H31" stroke="#706E6E" stroke-width="1.5"/>
<path fill-rule="evenodd" clip-rule="evenodd" d="M12.75 18.75C12.75 15.8505 15.1005 13.5 18 13.5C19.1792 13.5 20.2677 13.8888 21.1441 14.5452L13.7952 21.8941C13.1388 21.0177 12.75 19.9292 12.75 18.75ZM14.8558 22.9548C15.7323 23.6112 16.8207 24 18 24C20.8995 24 23.25 21.6495 23.25 18.75C23.25 17.5707 22.8612 16.4823 22.2048 15.6058L14.8558 22.9548ZM18 12C14.2721 12 11.25 15.0221 11.25 18.75C11.25 22.4779 14.2721 25.5 18 25.5C21.7279 25.5 24.75 22.4779 24.75 18.75C24.75 15.0221 21.7279 12 18 12Z" fill="#EE1717"/>
</svg>
