<svg width="36" height="36" viewBox="0 0 36 36" fill="none" xmlns="http://www.w3.org/2000/svg">
<rect x="3" y="6" width="30" height="24" rx="6" stroke="#706E6E" stroke-width="1.5"/>
<path d="M5 9H31" stroke="#706E6E" stroke-width="1.5"/>
<path fill-rule="evenodd" clip-rule="evenodd" d="M22.2727 14.7269L23.273 15.7272C23.4062 15.4484 23.3574 15.1044 23.1264 14.8735C22.8955 14.6426 22.5515 14.5937 22.2727 14.7269ZM24.3542 16.8083L25.9549 18.409C27.2241 19.6782 27.2241 21.736 25.9549 23.0052L25.6013 23.3588C25.3084 23.6517 24.8336 23.6517 24.5407 23.3588L21.1819 20L14.9947 26.1872C14.116 27.0659 12.6914 27.0659 11.8127 26.1872C10.9341 25.3085 10.9341 23.8839 11.8127 23.0052L17.9999 16.818L14.6412 13.4593C14.3483 13.1664 14.3483 12.6915 14.6412 12.3986L14.9947 12.0451C16.2639 10.7759 18.3217 10.7759 19.5909 12.0451L21.1916 13.6458C22.075 12.9382 23.3682 12.9939 24.1871 13.8128C25.006 14.6318 25.0617 15.9249 24.3542 16.8083ZM19.0606 17.8787L12.8734 24.0659C12.5805 24.3588 12.5805 24.8337 12.8734 25.1265C13.1663 25.4194 13.6412 25.4194 13.9341 25.1265L20.1212 18.9394L19.0606 17.8787ZM24.8942 19.4697C25.5176 20.0931 25.5724 21.0698 25.0585 21.7553L16.2447 12.9415C16.9301 12.4276 17.9069 12.4823 18.5303 13.1057L24.8942 19.4697Z" fill="#EE1717"/>
<path d="M31 21H29" stroke="#EE1717" stroke-width="1.5"/>
<path d="M24 28V26" stroke="#EE1717" stroke-width="1.5"/>
<path d="M30 27L27 24" stroke="#EE1717" stroke-width="1.5"/>
</svg>
