<svg width="300" height="300" viewBox="0 0 384 384" fill="none" xmlns="http://www.w3.org/2000/svg">
<path fill-rule="evenodd" clip-rule="evenodd" d="M339.096 312.27C304.253 354.835 251.299 382 192 382C132.701 382 79.7472 354.835 44.9038 312.27H42.3279C77.5199 356.009 131.491 384 192 384C252.509 384 306.48 356.009 341.672 312.27H339.096ZM360.612 279.663V283.912C375.524 256.614 384 225.297 384 192C384 158.703 375.524 127.386 360.612 100.088V104.337C374.276 130.565 382 160.381 382 192C382 223.619 374.276 253.435 360.612 279.663ZM50.2665 65.4602C85.0603 26.5158 135.667 2 192 2C248.333 2 298.94 26.5158 333.734 65.4602H336.405C301.214 25.3337 249.565 0 192 0C134.435 0 82.7862 25.3337 47.5955 65.4602H50.2665ZM20.9048 109.278V104.787C7.53861 130.957 0 160.598 0 192C0 223.402 7.53861 253.043 20.9048 279.213V274.722C8.7919 249.715 2 221.651 2 192C2 162.349 8.7919 134.285 20.9048 109.278Z" fill="#D1CCCC"/>
<path fill-rule="evenodd" clip-rule="evenodd" d="M21.9048 79.594C21.9048 72.3495 27.794 66.4602 35.0385 66.4602H346.479C353.723 66.4602 359.612 72.3495 359.612 79.594V208.446L361.612 209.761V79.594C361.612 71.2449 354.828 64.4602 346.479 64.4602H35.0385C26.6895 64.4602 19.9048 71.2449 19.9048 79.594V298.136C19.9048 306.485 26.6895 313.27 35.0385 313.27H346.479C354.828 313.27 361.612 306.485 361.612 298.136V229.779L359.612 230.048V298.136C359.612 305.381 353.723 311.27 346.479 311.27H35.0385C27.794 311.27 21.9048 305.381 21.9048 298.136V79.594Z" fill="#D1CCCC"/>
<path d="M360.602 80.1914V83.7036H21.0032V80.1914C21.0032 72.0857 27.5878 65.5315 35.6631 65.5315H345.942C354.048 65.5315 360.602 72.1161 360.602 80.1914Z" stroke="#D1CCCC" stroke-width="2"/>
<path d="M333.727 193.893L333.727 193.893C333.645 193.396 334.221 192.957 334.72 193.271L382.688 224.819C383.156 225.127 383.007 225.898 382.409 225.978L382.408 225.978L358.189 229.23C357.369 229.339 356.685 229.827 356.275 230.493L356.266 230.507L356.258 230.521L344.414 251.257L344.41 251.264C344.122 251.777 343.36 251.68 343.249 251.054C343.248 251.053 343.248 251.052 343.248 251.051L333.727 193.893Z" stroke="#D1CCCC" stroke-width="2"/>
<mask id="path-5-inside-1_2835_134313" fill="white">
<path d="M265.555 224.713V141.603L189.146 118.047L112.871 141.603V224.547C112.871 224.547 112.838 224.879 112.838 225.51C112.572 239.544 120.037 252.715 132.28 259.882L174.283 284.466C174.316 284.466 174.349 284.5 174.382 284.533L174.349 284.566C179.691 287.685 184.767 288.713 189.146 288.713C189.445 288.713 189.777 288.713 190.075 288.713C193.028 288.614 196.28 288.05 199.697 286.723C200.493 286.391 201.223 286.092 201.82 285.794C202.584 285.429 203.347 285.031 204.11 284.599L204.076 284.533L246.179 259.882C258.422 252.715 265.887 239.544 265.621 225.51C265.555 225.045 265.555 224.713 265.555 224.713Z"/>
</mask>
<path d="M265.555 224.713L267.555 224.713V224.713H265.555ZM265.555 141.603H267.555V140.127L266.144 139.692L265.555 141.603ZM189.146 118.047L189.736 116.135L189.146 115.954L188.556 116.136L189.146 118.047ZM112.871 141.603L112.281 139.692L110.871 140.127V141.603H112.871ZM112.871 224.547L114.861 224.746L114.871 224.647V224.547H112.871ZM112.838 225.51L114.837 225.547L114.838 225.528V225.51H112.838ZM132.28 259.882L131.269 261.608L131.269 261.608L132.28 259.882ZM174.283 284.466L173.273 286.193L173.741 286.466H174.283V284.466ZM174.382 284.533L175.796 285.948L177.212 284.534L175.797 283.119L174.382 284.533ZM174.349 284.566L172.936 283.151L171.1 284.985L173.341 286.293L174.349 284.566ZM190.075 288.713V290.713H190.109L190.143 290.712L190.075 288.713ZM199.697 286.723L200.421 288.587L200.444 288.578L200.466 288.569L199.697 286.723ZM201.82 285.794L200.958 283.989L200.942 283.997L200.926 284.005L201.82 285.794ZM204.11 284.599L205.094 286.34L206.749 285.405L205.898 283.704L204.11 284.599ZM204.076 284.533L203.066 282.807L201.45 283.753L202.288 285.428L204.076 284.533ZM246.179 259.882L245.169 258.156L245.169 258.156L246.179 259.882ZM265.621 225.51L267.621 225.472L267.619 225.349L267.601 225.227L265.621 225.51ZM267.555 224.713V141.603H263.555V224.713H267.555ZM266.144 139.692L189.736 116.135L188.557 119.958L264.966 143.514L266.144 139.692ZM188.556 116.136L112.281 139.692L113.461 143.514L189.737 119.958L188.556 116.136ZM110.871 141.603V224.547H114.871V141.603H110.871ZM112.871 224.547C110.881 224.348 110.881 224.349 110.881 224.349C110.881 224.349 110.881 224.349 110.881 224.349C110.881 224.349 110.881 224.35 110.881 224.35C110.88 224.35 110.88 224.351 110.88 224.352C110.88 224.353 110.88 224.354 110.88 224.355C110.88 224.358 110.879 224.361 110.879 224.364C110.879 224.37 110.878 224.378 110.877 224.387C110.875 224.406 110.873 224.429 110.871 224.458C110.867 224.515 110.862 224.592 110.857 224.69C110.847 224.885 110.838 225.159 110.838 225.51H114.838C114.838 225.229 114.845 225.023 114.852 224.895C114.855 224.83 114.858 224.785 114.86 224.761C114.861 224.748 114.861 224.741 114.862 224.738C114.862 224.737 114.862 224.737 114.862 224.739C114.861 224.739 114.861 224.74 114.861 224.742C114.861 224.742 114.861 224.743 114.861 224.744C114.861 224.744 114.861 224.745 114.861 224.745C114.861 224.745 114.861 224.745 114.861 224.746C114.861 224.746 114.861 224.746 114.861 224.746C114.861 224.746 114.861 224.746 112.871 224.547ZM110.838 225.472C110.559 240.241 118.412 254.082 131.269 261.608L133.29 258.156C121.662 251.349 114.586 238.846 114.837 225.547L110.838 225.472ZM131.269 261.608L173.273 286.193L175.293 282.74L133.29 258.156L131.269 261.608ZM174.283 286.466C173.646 286.466 173.23 286.161 173.132 286.087C173.013 285.998 172.925 285.904 172.968 285.947L175.797 283.119C175.793 283.115 175.761 283.083 175.726 283.05C175.689 283.015 175.622 282.954 175.533 282.887C175.402 282.789 174.952 282.466 174.283 282.466V286.466ZM172.969 283.118L172.936 283.151L175.762 285.981L175.796 285.948L172.969 283.118ZM173.341 286.293C179.011 289.604 184.439 290.713 189.146 290.713V286.713C185.095 286.713 180.371 285.766 175.358 282.839L173.341 286.293ZM189.146 290.713C189.147 290.713 189.148 290.713 189.148 290.713C189.149 290.713 189.149 290.713 189.15 290.713C189.151 290.713 189.151 290.713 189.152 290.713C189.152 290.713 189.153 290.713 189.153 290.713C189.154 290.713 189.155 290.713 189.155 290.713C189.156 290.713 189.156 290.713 189.157 290.713C189.158 290.713 189.158 290.713 189.159 290.713C189.159 290.713 189.16 290.713 189.161 290.713C189.161 290.713 189.162 290.713 189.162 290.713C189.163 290.713 189.163 290.713 189.164 290.713C189.165 290.713 189.165 290.713 189.166 290.713C189.166 290.713 189.167 290.713 189.168 290.713C189.168 290.713 189.169 290.713 189.169 290.713C189.17 290.713 189.17 290.713 189.171 290.713C189.172 290.713 189.172 290.713 189.173 290.713C189.173 290.713 189.174 290.713 189.175 290.713C189.175 290.713 189.176 290.713 189.176 290.713C189.177 290.713 189.178 290.713 189.178 290.713C189.179 290.713 189.179 290.713 189.18 290.713C189.18 290.713 189.181 290.713 189.182 290.713C189.182 290.713 189.183 290.713 189.183 290.713C189.184 290.713 189.185 290.713 189.185 290.713C189.186 290.713 189.186 290.713 189.187 290.713C189.188 290.713 189.188 290.713 189.189 290.713C189.189 290.713 189.19 290.713 189.19 290.713C189.191 290.713 189.192 290.713 189.192 290.713C189.193 290.713 189.193 290.713 189.194 290.713C189.195 290.713 189.195 290.713 189.196 290.713C189.196 290.713 189.197 290.713 189.198 290.713C189.198 290.713 189.199 290.713 189.199 290.713C189.2 290.713 189.2 290.713 189.201 290.713C189.202 290.713 189.202 290.713 189.203 290.713C189.203 290.713 189.204 290.713 189.205 290.713C189.205 290.713 189.206 290.713 189.206 290.713C189.207 290.713 189.208 290.713 189.208 290.713C189.209 290.713 189.209 290.713 189.21 290.713C189.211 290.713 189.211 290.713 189.212 290.713C189.212 290.713 189.213 290.713 189.213 290.713C189.214 290.713 189.215 290.713 189.215 290.713C189.216 290.713 189.216 290.713 189.217 290.713C189.218 290.713 189.218 290.713 189.219 290.713C189.219 290.713 189.22 290.713 189.221 290.713C189.221 290.713 189.222 290.713 189.222 290.713C189.223 290.713 189.224 290.713 189.224 290.713C189.225 290.713 189.225 290.713 189.226 290.713C189.227 290.713 189.227 290.713 189.228 290.713C189.228 290.713 189.229 290.713 189.23 290.713C189.23 290.713 189.231 290.713 189.231 290.713C189.232 290.713 189.232 290.713 189.233 290.713C189.234 290.713 189.234 290.713 189.235 290.713C189.235 290.713 189.236 290.713 189.237 290.713C189.237 290.713 189.238 290.713 189.238 290.713C189.239 290.713 189.24 290.713 189.24 290.713C189.241 290.713 189.241 290.713 189.242 290.713C189.243 290.713 189.243 290.713 189.244 290.713C189.244 290.713 189.245 290.713 189.246 290.713C189.246 290.713 189.247 290.713 189.247 290.713C189.248 290.713 189.249 290.713 189.249 290.713C189.25 290.713 189.25 290.713 189.251 290.713C189.252 290.713 189.252 290.713 189.253 290.713C189.253 290.713 189.254 290.713 189.255 290.713C189.255 290.713 189.256 290.713 189.256 290.713C189.257 290.713 189.257 290.713 189.258 290.713C189.259 290.713 189.259 290.713 189.26 290.713C189.26 290.713 189.261 290.713 189.262 290.713C189.262 290.713 189.263 290.713 189.263 290.713C189.264 290.713 189.265 290.713 189.265 290.713C189.266 290.713 189.266 290.713 189.267 290.713C189.268 290.713 189.268 290.713 189.269 290.713C189.269 290.713 189.27 290.713 189.271 290.713C189.271 290.713 189.272 290.713 189.272 290.713C189.273 290.713 189.274 290.713 189.274 290.713C189.275 290.713 189.275 290.713 189.276 290.713C189.277 290.713 189.277 290.713 189.278 290.713C189.278 290.713 189.279 290.713 189.28 290.713C189.28 290.713 189.281 290.713 189.281 290.713C189.282 290.713 189.283 290.713 189.283 290.713C189.284 290.713 189.284 290.713 189.285 290.713C189.286 290.713 189.286 290.713 189.287 290.713C189.287 290.713 189.288 290.713 189.289 290.713C189.289 290.713 189.29 290.713 189.29 290.713C189.291 290.713 189.292 290.713 189.292 290.713C189.293 290.713 189.293 290.713 189.294 290.713C189.295 290.713 189.295 290.713 189.296 290.713C189.296 290.713 189.297 290.713 189.298 290.713C189.298 290.713 189.299 290.713 189.299 290.713C189.3 290.713 189.301 290.713 189.301 290.713C189.302 290.713 189.302 290.713 189.303 290.713C189.304 290.713 189.304 290.713 189.305 290.713C189.305 290.713 189.306 290.713 189.307 290.713C189.307 290.713 189.308 290.713 189.308 290.713C189.309 290.713 189.31 290.713 189.31 290.713C189.311 290.713 189.311 290.713 189.312 290.713C189.313 290.713 189.313 290.713 189.314 290.713C189.314 290.713 189.315 290.713 189.316 290.713C189.316 290.713 189.317 290.713 189.318 290.713C189.318 290.713 189.319 290.713 189.319 290.713C189.32 290.713 189.321 290.713 189.321 290.713C189.322 290.713 189.322 290.713 189.323 290.713C189.324 290.713 189.324 290.713 189.325 290.713C189.325 290.713 189.326 290.713 189.327 290.713C189.327 290.713 189.328 290.713 189.328 290.713C189.329 290.713 189.33 290.713 189.33 290.713C189.331 290.713 189.331 290.713 189.332 290.713C189.333 290.713 189.333 290.713 189.334 290.713C189.334 290.713 189.335 290.713 189.336 290.713C189.336 290.713 189.337 290.713 189.337 290.713C189.338 290.713 189.339 290.713 189.339 290.713C189.34 290.713 189.34 290.713 189.341 290.713C189.342 290.713 189.342 290.713 189.343 290.713C189.343 290.713 189.344 290.713 189.345 290.713C189.345 290.713 189.346 290.713 189.347 290.713C189.347 290.713 189.348 290.713 189.348 290.713C189.349 290.713 189.35 290.713 189.35 290.713C189.351 290.713 189.351 290.713 189.352 290.713C189.353 290.713 189.353 290.713 189.354 290.713C189.354 290.713 189.355 290.713 189.356 290.713C189.356 290.713 189.357 290.713 189.357 290.713C189.358 290.713 189.359 290.713 189.359 290.713C189.36 290.713 189.36 290.713 189.361 290.713C189.362 290.713 189.362 290.713 189.363 290.713C189.363 290.713 189.364 290.713 189.365 290.713C189.365 290.713 189.366 290.713 189.367 290.713C189.367 290.713 189.368 290.713 189.368 290.713C189.369 290.713 189.37 290.713 189.37 290.713C189.371 290.713 189.371 290.713 189.372 290.713C189.373 290.713 189.373 290.713 189.374 290.713C189.374 290.713 189.375 290.713 189.376 290.713C189.376 290.713 189.377 290.713 189.377 290.713C189.378 290.713 189.379 290.713 189.379 290.713C189.38 290.713 189.38 290.713 189.381 290.713C189.382 290.713 189.382 290.713 189.383 290.713C189.384 290.713 189.384 290.713 189.385 290.713C189.385 290.713 189.386 290.713 189.387 290.713C189.387 290.713 189.388 290.713 189.388 290.713C189.389 290.713 189.39 290.713 189.39 290.713C189.391 290.713 189.391 290.713 189.392 290.713C189.393 290.713 189.393 290.713 189.394 290.713C189.394 290.713 189.395 290.713 189.396 290.713C189.396 290.713 189.397 290.713 189.398 290.713C189.398 290.713 189.399 290.713 189.399 290.713C189.4 290.713 189.401 290.713 189.401 290.713C189.402 290.713 189.402 290.713 189.403 290.713C189.404 290.713 189.404 290.713 189.405 290.713C189.405 290.713 189.406 290.713 189.407 290.713C189.407 290.713 189.408 290.713 189.408 290.713C189.409 290.713 189.41 290.713 189.41 290.713C189.411 290.713 189.412 290.713 189.412 290.713C189.413 290.713 189.413 290.713 189.414 290.713C189.415 290.713 189.415 290.713 189.416 290.713C189.416 290.713 189.417 290.713 189.418 290.713C189.418 290.713 189.419 290.713 189.419 290.713C189.42 290.713 189.421 290.713 189.421 290.713C189.422 290.713 189.423 290.713 189.423 290.713C189.424 290.713 189.424 290.713 189.425 290.713C189.426 290.713 189.426 290.713 189.427 290.713C189.427 290.713 189.428 290.713 189.429 290.713C189.429 290.713 189.43 290.713 189.43 290.713C189.431 290.713 189.432 290.713 189.432 290.713C189.433 290.713 189.434 290.713 189.434 290.713C189.435 290.713 189.435 290.713 189.436 290.713C189.437 290.713 189.437 290.713 189.438 290.713C189.438 290.713 189.439 290.713 189.44 290.713C189.44 290.713 189.441 290.713 189.441 290.713C189.442 290.713 189.443 290.713 189.443 290.713C189.444 290.713 189.445 290.713 189.445 290.713C189.446 290.713 189.446 290.713 189.447 290.713C189.448 290.713 189.448 290.713 189.449 290.713C189.449 290.713 189.45 290.713 189.451 290.713C189.451 290.713 189.452 290.713 189.452 290.713C189.453 290.713 189.454 290.713 189.454 290.713C189.455 290.713 189.456 290.713 189.456 290.713C189.457 290.713 189.457 290.713 189.458 290.713C189.459 290.713 189.459 290.713 189.46 290.713C189.46 290.713 189.461 290.713 189.462 290.713C189.462 290.713 189.463 290.713 189.463 290.713C189.464 290.713 189.465 290.713 189.465 290.713C189.466 290.713 189.467 290.713 189.467 290.713C189.468 290.713 189.468 290.713 189.469 290.713C189.47 290.713 189.47 290.713 189.471 290.713C189.471 290.713 189.472 290.713 189.473 290.713C189.473 290.713 189.474 290.713 189.475 290.713C189.475 290.713 189.476 290.713 189.476 290.713C189.477 290.713 189.478 290.713 189.478 290.713C189.479 290.713 189.479 290.713 189.48 290.713C189.481 290.713 189.481 290.713 189.482 290.713C189.482 290.713 189.483 290.713 189.484 290.713C189.484 290.713 189.485 290.713 189.486 290.713C189.486 290.713 189.487 290.713 189.487 290.713C189.488 290.713 189.489 290.713 189.489 290.713C189.49 290.713 189.49 290.713 189.491 290.713C189.492 290.713 189.492 290.713 189.493 290.713C189.494 290.713 189.494 290.713 189.495 290.713C189.495 290.713 189.496 290.713 189.497 290.713C189.497 290.713 189.498 290.713 189.498 290.713C189.499 290.713 189.5 290.713 189.5 290.713C189.501 290.713 189.502 290.713 189.502 290.713C189.503 290.713 189.503 290.713 189.504 290.713C189.505 290.713 189.505 290.713 189.506 290.713C189.506 290.713 189.507 290.713 189.508 290.713C189.508 290.713 189.509 290.713 189.509 290.713C189.51 290.713 189.511 290.713 189.511 290.713C189.512 290.713 189.513 290.713 189.513 290.713C189.514 290.713 189.514 290.713 189.515 290.713C189.516 290.713 189.516 290.713 189.517 290.713C189.517 290.713 189.518 290.713 189.519 290.713C189.519 290.713 189.52 290.713 189.521 290.713C189.521 290.713 189.522 290.713 189.522 290.713C189.523 290.713 189.524 290.713 189.524 290.713C189.525 290.713 189.525 290.713 189.526 290.713C189.527 290.713 189.527 290.713 189.528 290.713C189.529 290.713 189.529 290.713 189.53 290.713C189.53 290.713 189.531 290.713 189.532 290.713C189.532 290.713 189.533 290.713 189.533 290.713C189.534 290.713 189.535 290.713 189.535 290.713C189.536 290.713 189.537 290.713 189.537 290.713C189.538 290.713 189.538 290.713 189.539 290.713C189.54 290.713 189.54 290.713 189.541 290.713C189.541 290.713 189.542 290.713 189.543 290.713C189.543 290.713 189.544 290.713 189.545 290.713C189.545 290.713 189.546 290.713 189.546 290.713C189.547 290.713 189.548 290.713 189.548 290.713C189.549 290.713 189.549 290.713 189.55 290.713C189.551 290.713 189.551 290.713 189.552 290.713C189.553 290.713 189.553 290.713 189.554 290.713C189.554 290.713 189.555 290.713 189.556 290.713C189.556 290.713 189.557 290.713 189.557 290.713C189.558 290.713 189.559 290.713 189.559 290.713C189.56 290.713 189.561 290.713 189.561 290.713C189.562 290.713 189.562 290.713 189.563 290.713C189.564 290.713 189.564 290.713 189.565 290.713C189.565 290.713 189.566 290.713 189.567 290.713C189.567 290.713 189.568 290.713 189.569 290.713C189.569 290.713 189.57 290.713 189.57 290.713C189.571 290.713 189.572 290.713 189.572 290.713C189.573 290.713 189.573 290.713 189.574 290.713C189.575 290.713 189.575 290.713 189.576 290.713C189.577 290.713 189.577 290.713 189.578 290.713C189.578 290.713 189.579 290.713 189.58 290.713C189.58 290.713 189.581 290.713 189.581 290.713C189.582 290.713 189.583 290.713 189.583 290.713C189.584 290.713 189.585 290.713 189.585 290.713C189.586 290.713 189.586 290.713 189.587 290.713C189.588 290.713 189.588 290.713 189.589 290.713C189.589 290.713 189.59 290.713 189.591 290.713C189.591 290.713 189.592 290.713 189.593 290.713C189.593 290.713 189.594 290.713 189.594 290.713C189.595 290.713 189.596 290.713 189.596 290.713C189.597 290.713 189.597 290.713 189.598 290.713C189.599 290.713 189.599 290.713 189.6 290.713C189.601 290.713 189.601 290.713 189.602 290.713C189.602 290.713 189.603 290.713 189.604 290.713C189.604 290.713 189.605 290.713 189.605 290.713C189.606 290.713 189.607 290.713 189.607 290.713C189.608 290.713 189.609 290.713 189.609 290.713C189.61 290.713 189.61 290.713 189.611 290.713C189.612 290.713 189.612 290.713 189.613 290.713C189.613 290.713 189.614 290.713 189.615 290.713C189.615 290.713 189.616 290.713 189.617 290.713C189.617 290.713 189.618 290.713 189.618 290.713C189.619 290.713 189.62 290.713 189.62 290.713C189.621 290.713 189.621 290.713 189.622 290.713C189.623 290.713 189.623 290.713 189.624 290.713C189.625 290.713 189.625 290.713 189.626 290.713C189.626 290.713 189.627 290.713 189.628 290.713C189.628 290.713 189.629 290.713 189.629 290.713C189.63 290.713 189.631 290.713 189.631 290.713C189.632 290.713 189.633 290.713 189.633 290.713C189.634 290.713 189.634 290.713 189.635 290.713C189.636 290.713 189.636 290.713 189.637 290.713C189.637 290.713 189.638 290.713 189.639 290.713C189.639 290.713 189.64 290.713 189.641 290.713C189.641 290.713 189.642 290.713 189.642 290.713C189.643 290.713 189.644 290.713 189.644 290.713C189.645 290.713 189.645 290.713 189.646 290.713C189.647 290.713 189.647 290.713 189.648 290.713C189.649 290.713 189.649 290.713 189.65 290.713C189.65 290.713 189.651 290.713 189.652 290.713C189.652 290.713 189.653 290.713 189.653 290.713C189.654 290.713 189.655 290.713 189.655 290.713C189.656 290.713 189.657 290.713 189.657 290.713C189.658 290.713 189.658 290.713 189.659 290.713C189.66 290.713 189.66 290.713 189.661 290.713C189.661 290.713 189.662 290.713 189.663 290.713C189.663 290.713 189.664 290.713 189.665 290.713C189.665 290.713 189.666 290.713 189.666 290.713C189.667 290.713 189.668 290.713 189.668 290.713C189.669 290.713 189.669 290.713 189.67 290.713C189.671 290.713 189.671 290.713 189.672 290.713C189.673 290.713 189.673 290.713 189.674 290.713C189.674 290.713 189.675 290.713 189.676 290.713C189.676 290.713 189.677 290.713 189.677 290.713C189.678 290.713 189.679 290.713 189.679 290.713C189.68 290.713 189.681 290.713 189.681 290.713C189.682 290.713 189.682 290.713 189.683 290.713C189.684 290.713 189.684 290.713 189.685 290.713C189.685 290.713 189.686 290.713 189.687 290.713C189.687 290.713 189.688 290.713 189.689 290.713C189.689 290.713 189.69 290.713 189.69 290.713C189.691 290.713 189.692 290.713 189.692 290.713C189.693 290.713 189.693 290.713 189.694 290.713C189.695 290.713 189.695 290.713 189.696 290.713C189.697 290.713 189.697 290.713 189.698 290.713C189.698 290.713 189.699 290.713 189.7 290.713C189.7 290.713 189.701 290.713 189.701 290.713C189.702 290.713 189.703 290.713 189.703 290.713C189.704 290.713 189.704 290.713 189.705 290.713C189.706 290.713 189.706 290.713 189.707 290.713C189.708 290.713 189.708 290.713 189.709 290.713C189.709 290.713 189.71 290.713 189.711 290.713C189.711 290.713 189.712 290.713 189.712 290.713C189.713 290.713 189.714 290.713 189.714 290.713C189.715 290.713 189.716 290.713 189.716 290.713C189.717 290.713 189.717 290.713 189.718 290.713C189.719 290.713 189.719 290.713 189.72 290.713C189.72 290.713 189.721 290.713 189.722 290.713C189.722 290.713 189.723 290.713 189.724 290.713C189.724 290.713 189.725 290.713 189.725 290.713C189.726 290.713 189.727 290.713 189.727 290.713C189.728 290.713 189.728 290.713 189.729 290.713C189.73 290.713 189.73 290.713 189.731 290.713C189.731 290.713 189.732 290.713 189.733 290.713C189.733 290.713 189.734 290.713 189.735 290.713C189.735 290.713 189.736 290.713 189.736 290.713C189.737 290.713 189.738 290.713 189.738 290.713C189.739 290.713 189.739 290.713 189.74 290.713C189.741 290.713 189.741 290.713 189.742 290.713C189.743 290.713 189.743 290.713 189.744 290.713C189.744 290.713 189.745 290.713 189.746 290.713C189.746 290.713 189.747 290.713 189.747 290.713C189.748 290.713 189.749 290.713 189.749 290.713C189.75 290.713 189.751 290.713 189.751 290.713C189.752 290.713 189.752 290.713 189.753 290.713C189.754 290.713 189.754 290.713 189.755 290.713C189.755 290.713 189.756 290.713 189.757 290.713C189.757 290.713 189.758 290.713 189.758 290.713C189.759 290.713 189.76 290.713 189.76 290.713C189.761 290.713 189.762 290.713 189.762 290.713C189.763 290.713 189.763 290.713 189.764 290.713C189.765 290.713 189.765 290.713 189.766 290.713C189.766 290.713 189.767 290.713 189.768 290.713C189.768 290.713 189.769 290.713 189.769 290.713C189.77 290.713 189.771 290.713 189.771 290.713C189.772 290.713 189.773 290.713 189.773 290.713C189.774 290.713 189.774 290.713 189.775 290.713C189.776 290.713 189.776 290.713 189.777 290.713C189.777 290.713 189.778 290.713 189.779 290.713C189.779 290.713 189.78 290.713 189.781 290.713C189.781 290.713 189.782 290.713 189.782 290.713C189.783 290.713 189.784 290.713 189.784 290.713C189.785 290.713 189.785 290.713 189.786 290.713C189.787 290.713 189.787 290.713 189.788 290.713C189.788 290.713 189.789 290.713 189.79 290.713C189.79 290.713 189.791 290.713 189.792 290.713C189.792 290.713 189.793 290.713 189.793 290.713C189.794 290.713 189.795 290.713 189.795 290.713C189.796 290.713 189.796 290.713 189.797 290.713C189.798 290.713 189.798 290.713 189.799 290.713C189.799 290.713 189.8 290.713 189.801 290.713C189.801 290.713 189.802 290.713 189.802 290.713C189.803 290.713 189.804 290.713 189.804 290.713C189.805 290.713 189.806 290.713 189.806 290.713C189.807 290.713 189.807 290.713 189.808 290.713C189.809 290.713 189.809 290.713 189.81 290.713C189.81 290.713 189.811 290.713 189.812 290.713C189.812 290.713 189.813 290.713 189.813 290.713C189.814 290.713 189.815 290.713 189.815 290.713C189.816 290.713 189.817 290.713 189.817 290.713C189.818 290.713 189.818 290.713 189.819 290.713C189.82 290.713 189.82 290.713 189.821 290.713C189.821 290.713 189.822 290.713 189.823 290.713C189.823 290.713 189.824 290.713 189.824 290.713C189.825 290.713 189.826 290.713 189.826 290.713C189.827 290.713 189.827 290.713 189.828 290.713C189.829 290.713 189.829 290.713 189.83 290.713C189.831 290.713 189.831 290.713 189.832 290.713C189.832 290.713 189.833 290.713 189.834 290.713C189.834 290.713 189.835 290.713 189.835 290.713C189.836 290.713 189.837 290.713 189.837 290.713C189.838 290.713 189.838 290.713 189.839 290.713C189.84 290.713 189.84 290.713 189.841 290.713C189.841 290.713 189.842 290.713 189.843 290.713C189.843 290.713 189.844 290.713 189.845 290.713C189.845 290.713 189.846 290.713 189.846 290.713C189.847 290.713 189.848 290.713 189.848 290.713C189.849 290.713 189.849 290.713 189.85 290.713C189.851 290.713 189.851 290.713 189.852 290.713C189.852 290.713 189.853 290.713 189.854 290.713C189.854 290.713 189.855 290.713 189.855 290.713C189.856 290.713 189.857 290.713 189.857 290.713C189.858 290.713 189.858 290.713 189.859 290.713C189.86 290.713 189.86 290.713 189.861 290.713C189.862 290.713 189.862 290.713 189.863 290.713C189.863 290.713 189.864 290.713 189.865 290.713C189.865 290.713 189.866 290.713 189.866 290.713C189.867 290.713 189.868 290.713 189.868 290.713C189.869 290.713 189.869 290.713 189.87 290.713C189.871 290.713 189.871 290.713 189.872 290.713C189.872 290.713 189.873 290.713 189.874 290.713C189.874 290.713 189.875 290.713 189.875 290.713C189.876 290.713 189.877 290.713 189.877 290.713C189.878 290.713 189.878 290.713 189.879 290.713C189.88 290.713 189.88 290.713 189.881 290.713C189.882 290.713 189.882 290.713 189.883 290.713C189.883 290.713 189.884 290.713 189.885 290.713C189.885 290.713 189.886 290.713 189.886 290.713C189.887 290.713 189.888 290.713 189.888 290.713C189.889 290.713 189.889 290.713 189.89 290.713C189.891 290.713 189.891 290.713 189.892 290.713C189.892 290.713 189.893 290.713 189.894 290.713C189.894 290.713 189.895 290.713 189.895 290.713C189.896 290.713 189.897 290.713 189.897 290.713C189.898 290.713 189.898 290.713 189.899 290.713C189.9 290.713 189.9 290.713 189.901 290.713C189.901 290.713 189.902 290.713 189.903 290.713C189.903 290.713 189.904 290.713 189.904 290.713C189.905 290.713 189.906 290.713 189.906 290.713C189.907 290.713 189.907 290.713 189.908 290.713C189.909 290.713 189.909 290.713 189.91 290.713C189.91 290.713 189.911 290.713 189.912 290.713C189.912 290.713 189.913 290.713 189.913 290.713C189.914 290.713 189.915 290.713 189.915 290.713C189.916 290.713 189.916 290.713 189.917 290.713C189.918 290.713 189.918 290.713 189.919 290.713C189.92 290.713 189.92 290.713 189.921 290.713C189.921 290.713 189.922 290.713 189.923 290.713C189.923 290.713 189.924 290.713 189.924 290.713C189.925 290.713 189.926 290.713 189.926 290.713C189.927 290.713 189.927 290.713 189.928 290.713C189.929 290.713 189.929 290.713 189.93 290.713C189.93 290.713 189.931 290.713 189.932 290.713C189.932 290.713 189.933 290.713 189.933 290.713C189.934 290.713 189.935 290.713 189.935 290.713C189.936 290.713 189.936 290.713 189.937 290.713C189.938 290.713 189.938 290.713 189.939 290.713C189.939 290.713 189.94 290.713 189.941 290.713C189.941 290.713 189.942 290.713 189.942 290.713C189.943 290.713 189.944 290.713 189.944 290.713C189.945 290.713 189.945 290.713 189.946 290.713C189.947 290.713 189.947 290.713 189.948 290.713C189.948 290.713 189.949 290.713 189.95 290.713C189.95 290.713 189.951 290.713 189.951 290.713C189.952 290.713 189.953 290.713 189.953 290.713C189.954 290.713 189.954 290.713 189.955 290.713C189.955 290.713 189.956 290.713 189.957 290.713C189.957 290.713 189.958 290.713 189.958 290.713C189.959 290.713 189.96 290.713 189.96 290.713C189.961 290.713 189.961 290.713 189.962 290.713C189.963 290.713 189.963 290.713 189.964 290.713C189.964 290.713 189.965 290.713 189.966 290.713C189.966 290.713 189.967 290.713 189.967 290.713C189.968 290.713 189.969 290.713 189.969 290.713C189.97 290.713 189.97 290.713 189.971 290.713C189.972 290.713 189.972 290.713 189.973 290.713C189.973 290.713 189.974 290.713 189.975 290.713C189.975 290.713 189.976 290.713 189.976 290.713C189.977 290.713 189.978 290.713 189.978 290.713C189.979 290.713 189.979 290.713 189.98 290.713C189.981 290.713 189.981 290.713 189.982 290.713C189.982 290.713 189.983 290.713 189.984 290.713C189.984 290.713 189.985 290.713 189.985 290.713C189.986 290.713 189.987 290.713 189.987 290.713C189.988 290.713 189.988 290.713 189.989 290.713C189.989 290.713 189.99 290.713 189.991 290.713C189.991 290.713 189.992 290.713 189.992 290.713C189.993 290.713 189.994 290.713 189.994 290.713C189.995 290.713 189.995 290.713 189.996 290.713C189.997 290.713 189.997 290.713 189.998 290.713C189.998 290.713 189.999 290.713 190 290.713C190 290.713 190.001 290.713 190.001 290.713C190.002 290.713 190.003 290.713 190.003 290.713C190.004 290.713 190.004 290.713 190.005 290.713C190.006 290.713 190.006 290.713 190.007 290.713C190.007 290.713 190.008 290.713 190.008 290.713C190.009 290.713 190.01 290.713 190.01 290.713C190.011 290.713 190.011 290.713 190.012 290.713C190.013 290.713 190.013 290.713 190.014 290.713C190.014 290.713 190.015 290.713 190.016 290.713C190.016 290.713 190.017 290.713 190.017 290.713C190.018 290.713 190.019 290.713 190.019 290.713C190.02 290.713 190.02 290.713 190.021 290.713C190.021 290.713 190.022 290.713 190.023 290.713C190.023 290.713 190.024 290.713 190.024 290.713C190.025 290.713 190.026 290.713 190.026 290.713C190.027 290.713 190.027 290.713 190.028 290.713C190.029 290.713 190.029 290.713 190.03 290.713C190.03 290.713 190.031 290.713 190.032 290.713C190.032 290.713 190.033 290.713 190.033 290.713C190.034 290.713 190.034 290.713 190.035 290.713C190.036 290.713 190.036 290.713 190.037 290.713C190.037 290.713 190.038 290.713 190.039 290.713C190.039 290.713 190.04 290.713 190.04 290.713C190.041 290.713 190.042 290.713 190.042 290.713C190.043 290.713 190.043 290.713 190.044 290.713C190.044 290.713 190.045 290.713 190.046 290.713C190.046 290.713 190.047 290.713 190.047 290.713C190.048 290.713 190.049 290.713 190.049 290.713C190.05 290.713 190.05 290.713 190.051 290.713C190.051 290.713 190.052 290.713 190.053 290.713C190.053 290.713 190.054 290.713 190.054 290.713C190.055 290.713 190.056 290.713 190.056 290.713C190.057 290.713 190.057 290.713 190.058 290.713C190.059 290.713 190.059 290.713 190.06 290.713C190.06 290.713 190.061 290.713 190.061 290.713C190.062 290.713 190.063 290.713 190.063 290.713C190.064 290.713 190.064 290.713 190.065 290.713C190.066 290.713 190.066 290.713 190.067 290.713C190.067 290.713 190.068 290.713 190.068 290.713C190.069 290.713 190.07 290.713 190.07 290.713C190.071 290.713 190.071 290.713 190.072 290.713C190.073 290.713 190.073 290.713 190.074 290.713C190.074 290.713 190.075 290.713 190.075 290.713V286.713C190.075 286.713 190.074 286.713 190.074 286.713C190.073 286.713 190.073 286.713 190.072 286.713C190.071 286.713 190.071 286.713 190.07 286.713C190.07 286.713 190.069 286.713 190.068 286.713C190.068 286.713 190.067 286.713 190.067 286.713C190.066 286.713 190.066 286.713 190.065 286.713C190.064 286.713 190.064 286.713 190.063 286.713C190.063 286.713 190.062 286.713 190.061 286.713C190.061 286.713 190.06 286.713 190.06 286.713C190.059 286.713 190.059 286.713 190.058 286.713C190.057 286.713 190.057 286.713 190.056 286.713C190.056 286.713 190.055 286.713 190.054 286.713C190.054 286.713 190.053 286.713 190.053 286.713C190.052 286.713 190.051 286.713 190.051 286.713C190.05 286.713 190.05 286.713 190.049 286.713C190.049 286.713 190.048 286.713 190.047 286.713C190.047 286.713 190.046 286.713 190.046 286.713C190.045 286.713 190.044 286.713 190.044 286.713C190.043 286.713 190.043 286.713 190.042 286.713C190.042 286.713 190.041 286.713 190.04 286.713C190.04 286.713 190.039 286.713 190.039 286.713C190.038 286.713 190.037 286.713 190.037 286.713C190.036 286.713 190.036 286.713 190.035 286.713C190.034 286.713 190.034 286.713 190.033 286.713C190.033 286.713 190.032 286.713 190.032 286.713C190.031 286.713 190.03 286.713 190.03 286.713C190.029 286.713 190.029 286.713 190.028 286.713C190.027 286.713 190.027 286.713 190.026 286.713C190.026 286.713 190.025 286.713 190.024 286.713C190.024 286.713 190.023 286.713 190.023 286.713C190.022 286.713 190.021 286.713 190.021 286.713C190.02 286.713 190.02 286.713 190.019 286.713C190.019 286.713 190.018 286.713 190.017 286.713C190.017 286.713 190.016 286.713 190.016 286.713C190.015 286.713 190.014 286.713 190.014 286.713C190.013 286.713 190.013 286.713 190.012 286.713C190.011 286.713 190.011 286.713 190.01 286.713C190.01 286.713 190.009 286.713 190.008 286.713C190.008 286.713 190.007 286.713 190.007 286.713C190.006 286.713 190.006 286.713 190.005 286.713C190.004 286.713 190.004 286.713 190.003 286.713C190.003 286.713 190.002 286.713 190.001 286.713C190.001 286.713 190 286.713 190 286.713C189.999 286.713 189.998 286.713 189.998 286.713C189.997 286.713 189.997 286.713 189.996 286.713C189.995 286.713 189.995 286.713 189.994 286.713C189.994 286.713 189.993 286.713 189.992 286.713C189.992 286.713 189.991 286.713 189.991 286.713C189.99 286.713 189.989 286.713 189.989 286.713C189.988 286.713 189.988 286.713 189.987 286.713C189.987 286.713 189.986 286.713 189.985 286.713C189.985 286.713 189.984 286.713 189.984 286.713C189.983 286.713 189.982 286.713 189.982 286.713C189.981 286.713 189.981 286.713 189.98 286.713C189.979 286.713 189.979 286.713 189.978 286.713C189.978 286.713 189.977 286.713 189.976 286.713C189.976 286.713 189.975 286.713 189.975 286.713C189.974 286.713 189.973 286.713 189.973 286.713C189.972 286.713 189.972 286.713 189.971 286.713C189.97 286.713 189.97 286.713 189.969 286.713C189.969 286.713 189.968 286.713 189.967 286.713C189.967 286.713 189.966 286.713 189.966 286.713C189.965 286.713 189.964 286.713 189.964 286.713C189.963 286.713 189.963 286.713 189.962 286.713C189.961 286.713 189.961 286.713 189.96 286.713C189.96 286.713 189.959 286.713 189.958 286.713C189.958 286.713 189.957 286.713 189.957 286.713C189.956 286.713 189.955 286.713 189.955 286.713C189.954 286.713 189.954 286.713 189.953 286.713C189.953 286.713 189.952 286.713 189.951 286.713C189.951 286.713 189.95 286.713 189.95 286.713C189.949 286.713 189.948 286.713 189.948 286.713C189.947 286.713 189.947 286.713 189.946 286.713C189.945 286.713 189.945 286.713 189.944 286.713C189.944 286.713 189.943 286.713 189.942 286.713C189.942 286.713 189.941 286.713 189.941 286.713C189.94 286.713 189.939 286.713 189.939 286.713C189.938 286.713 189.938 286.713 189.937 286.713C189.936 286.713 189.936 286.713 189.935 286.713C189.935 286.713 189.934 286.713 189.933 286.713C189.933 286.713 189.932 286.713 189.932 286.713C189.931 286.713 189.93 286.713 189.93 286.713C189.929 286.713 189.929 286.713 189.928 286.713C189.927 286.713 189.927 286.713 189.926 286.713C189.926 286.713 189.925 286.713 189.924 286.713C189.924 286.713 189.923 286.713 189.923 286.713C189.922 286.713 189.921 286.713 189.921 286.713C189.92 286.713 189.92 286.713 189.919 286.713C189.918 286.713 189.918 286.713 189.917 286.713C189.916 286.713 189.916 286.713 189.915 286.713C189.915 286.713 189.914 286.713 189.913 286.713C189.913 286.713 189.912 286.713 189.912 286.713C189.911 286.713 189.91 286.713 189.91 286.713C189.909 286.713 189.909 286.713 189.908 286.713C189.907 286.713 189.907 286.713 189.906 286.713C189.906 286.713 189.905 286.713 189.904 286.713C189.904 286.713 189.903 286.713 189.903 286.713C189.902 286.713 189.901 286.713 189.901 286.713C189.9 286.713 189.9 286.713 189.899 286.713C189.898 286.713 189.898 286.713 189.897 286.713C189.897 286.713 189.896 286.713 189.895 286.713C189.895 286.713 189.894 286.713 189.894 286.713C189.893 286.713 189.892 286.713 189.892 286.713C189.891 286.713 189.891 286.713 189.89 286.713C189.889 286.713 189.889 286.713 189.888 286.713C189.888 286.713 189.887 286.713 189.886 286.713C189.886 286.713 189.885 286.713 189.885 286.713C189.884 286.713 189.883 286.713 189.883 286.713C189.882 286.713 189.882 286.713 189.881 286.713C189.88 286.713 189.88 286.713 189.879 286.713C189.878 286.713 189.878 286.713 189.877 286.713C189.877 286.713 189.876 286.713 189.875 286.713C189.875 286.713 189.874 286.713 189.874 286.713C189.873 286.713 189.872 286.713 189.872 286.713C189.871 286.713 189.871 286.713 189.87 286.713C189.869 286.713 189.869 286.713 189.868 286.713C189.868 286.713 189.867 286.713 189.866 286.713C189.866 286.713 189.865 286.713 189.865 286.713C189.864 286.713 189.863 286.713 189.863 286.713C189.862 286.713 189.862 286.713 189.861 286.713C189.86 286.713 189.86 286.713 189.859 286.713C189.858 286.713 189.858 286.713 189.857 286.713C189.857 286.713 189.856 286.713 189.855 286.713C189.855 286.713 189.854 286.713 189.854 286.713C189.853 286.713 189.852 286.713 189.852 286.713C189.851 286.713 189.851 286.713 189.85 286.713C189.849 286.713 189.849 286.713 189.848 286.713C189.848 286.713 189.847 286.713 189.846 286.713C189.846 286.713 189.845 286.713 189.845 286.713C189.844 286.713 189.843 286.713 189.843 286.713C189.842 286.713 189.841 286.713 189.841 286.713C189.84 286.713 189.84 286.713 189.839 286.713C189.838 286.713 189.838 286.713 189.837 286.713C189.837 286.713 189.836 286.713 189.835 286.713C189.835 286.713 189.834 286.713 189.834 286.713C189.833 286.713 189.832 286.713 189.832 286.713C189.831 286.713 189.831 286.713 189.83 286.713C189.829 286.713 189.829 286.713 189.828 286.713C189.827 286.713 189.827 286.713 189.826 286.713C189.826 286.713 189.825 286.713 189.824 286.713C189.824 286.713 189.823 286.713 189.823 286.713C189.822 286.713 189.821 286.713 189.821 286.713C189.82 286.713 189.82 286.713 189.819 286.713C189.818 286.713 189.818 286.713 189.817 286.713C189.817 286.713 189.816 286.713 189.815 286.713C189.815 286.713 189.814 286.713 189.813 286.713C189.813 286.713 189.812 286.713 189.812 286.713C189.811 286.713 189.81 286.713 189.81 286.713C189.809 286.713 189.809 286.713 189.808 286.713C189.807 286.713 189.807 286.713 189.806 286.713C189.806 286.713 189.805 286.713 189.804 286.713C189.804 286.713 189.803 286.713 189.802 286.713C189.802 286.713 189.801 286.713 189.801 286.713C189.8 286.713 189.799 286.713 189.799 286.713C189.798 286.713 189.798 286.713 189.797 286.713C189.796 286.713 189.796 286.713 189.795 286.713C189.795 286.713 189.794 286.713 189.793 286.713C189.793 286.713 189.792 286.713 189.792 286.713C189.791 286.713 189.79 286.713 189.79 286.713C189.789 286.713 189.788 286.713 189.788 286.713C189.787 286.713 189.787 286.713 189.786 286.713C189.785 286.713 189.785 286.713 189.784 286.713C189.784 286.713 189.783 286.713 189.782 286.713C189.782 286.713 189.781 286.713 189.781 286.713C189.78 286.713 189.779 286.713 189.779 286.713C189.778 286.713 189.777 286.713 189.777 286.713C189.776 286.713 189.776 286.713 189.775 286.713C189.774 286.713 189.774 286.713 189.773 286.713C189.773 286.713 189.772 286.713 189.771 286.713C189.771 286.713 189.77 286.713 189.769 286.713C189.769 286.713 189.768 286.713 189.768 286.713C189.767 286.713 189.766 286.713 189.766 286.713C189.765 286.713 189.765 286.713 189.764 286.713C189.763 286.713 189.763 286.713 189.762 286.713C189.762 286.713 189.761 286.713 189.76 286.713C189.76 286.713 189.759 286.713 189.758 286.713C189.758 286.713 189.757 286.713 189.757 286.713C189.756 286.713 189.755 286.713 189.755 286.713C189.754 286.713 189.754 286.713 189.753 286.713C189.752 286.713 189.752 286.713 189.751 286.713C189.751 286.713 189.75 286.713 189.749 286.713C189.749 286.713 189.748 286.713 189.747 286.713C189.747 286.713 189.746 286.713 189.746 286.713C189.745 286.713 189.744 286.713 189.744 286.713C189.743 286.713 189.743 286.713 189.742 286.713C189.741 286.713 189.741 286.713 189.74 286.713C189.739 286.713 189.739 286.713 189.738 286.713C189.738 286.713 189.737 286.713 189.736 286.713C189.736 286.713 189.735 286.713 189.735 286.713C189.734 286.713 189.733 286.713 189.733 286.713C189.732 286.713 189.731 286.713 189.731 286.713C189.73 286.713 189.73 286.713 189.729 286.713C189.728 286.713 189.728 286.713 189.727 286.713C189.727 286.713 189.726 286.713 189.725 286.713C189.725 286.713 189.724 286.713 189.724 286.713C189.723 286.713 189.722 286.713 189.722 286.713C189.721 286.713 189.72 286.713 189.72 286.713C189.719 286.713 189.719 286.713 189.718 286.713C189.717 286.713 189.717 286.713 189.716 286.713C189.716 286.713 189.715 286.713 189.714 286.713C189.714 286.713 189.713 286.713 189.712 286.713C189.712 286.713 189.711 286.713 189.711 286.713C189.71 286.713 189.709 286.713 189.709 286.713C189.708 286.713 189.708 286.713 189.707 286.713C189.706 286.713 189.706 286.713 189.705 286.713C189.704 286.713 189.704 286.713 189.703 286.713C189.703 286.713 189.702 286.713 189.701 286.713C189.701 286.713 189.7 286.713 189.7 286.713C189.699 286.713 189.698 286.713 189.698 286.713C189.697 286.713 189.697 286.713 189.696 286.713C189.695 286.713 189.695 286.713 189.694 286.713C189.693 286.713 189.693 286.713 189.692 286.713C189.692 286.713 189.691 286.713 189.69 286.713C189.69 286.713 189.689 286.713 189.689 286.713C189.688 286.713 189.687 286.713 189.687 286.713C189.686 286.713 189.685 286.713 189.685 286.713C189.684 286.713 189.684 286.713 189.683 286.713C189.682 286.713 189.682 286.713 189.681 286.713C189.681 286.713 189.68 286.713 189.679 286.713C189.679 286.713 189.678 286.713 189.677 286.713C189.677 286.713 189.676 286.713 189.676 286.713C189.675 286.713 189.674 286.713 189.674 286.713C189.673 286.713 189.673 286.713 189.672 286.713C189.671 286.713 189.671 286.713 189.67 286.713C189.669 286.713 189.669 286.713 189.668 286.713C189.668 286.713 189.667 286.713 189.666 286.713C189.666 286.713 189.665 286.713 189.665 286.713C189.664 286.713 189.663 286.713 189.663 286.713C189.662 286.713 189.661 286.713 189.661 286.713C189.66 286.713 189.66 286.713 189.659 286.713C189.658 286.713 189.658 286.713 189.657 286.713C189.657 286.713 189.656 286.713 189.655 286.713C189.655 286.713 189.654 286.713 189.653 286.713C189.653 286.713 189.652 286.713 189.652 286.713C189.651 286.713 189.65 286.713 189.65 286.713C189.649 286.713 189.649 286.713 189.648 286.713C189.647 286.713 189.647 286.713 189.646 286.713C189.645 286.713 189.645 286.713 189.644 286.713C189.644 286.713 189.643 286.713 189.642 286.713C189.642 286.713 189.641 286.713 189.641 286.713C189.64 286.713 189.639 286.713 189.639 286.713C189.638 286.713 189.637 286.713 189.637 286.713C189.636 286.713 189.636 286.713 189.635 286.713C189.634 286.713 189.634 286.713 189.633 286.713C189.633 286.713 189.632 286.713 189.631 286.713C189.631 286.713 189.63 286.713 189.629 286.713C189.629 286.713 189.628 286.713 189.628 286.713C189.627 286.713 189.626 286.713 189.626 286.713C189.625 286.713 189.625 286.713 189.624 286.713C189.623 286.713 189.623 286.713 189.622 286.713C189.621 286.713 189.621 286.713 189.62 286.713C189.62 286.713 189.619 286.713 189.618 286.713C189.618 286.713 189.617 286.713 189.617 286.713C189.616 286.713 189.615 286.713 189.615 286.713C189.614 286.713 189.613 286.713 189.613 286.713C189.612 286.713 189.612 286.713 189.611 286.713C189.61 286.713 189.61 286.713 189.609 286.713C189.609 286.713 189.608 286.713 189.607 286.713C189.607 286.713 189.606 286.713 189.605 286.713C189.605 286.713 189.604 286.713 189.604 286.713C189.603 286.713 189.602 286.713 189.602 286.713C189.601 286.713 189.601 286.713 189.6 286.713C189.599 286.713 189.599 286.713 189.598 286.713C189.597 286.713 189.597 286.713 189.596 286.713C189.596 286.713 189.595 286.713 189.594 286.713C189.594 286.713 189.593 286.713 189.593 286.713C189.592 286.713 189.591 286.713 189.591 286.713C189.59 286.713 189.589 286.713 189.589 286.713C189.588 286.713 189.588 286.713 189.587 286.713C189.586 286.713 189.586 286.713 189.585 286.713C189.585 286.713 189.584 286.713 189.583 286.713C189.583 286.713 189.582 286.713 189.581 286.713C189.581 286.713 189.58 286.713 189.58 286.713C189.579 286.713 189.578 286.713 189.578 286.713C189.577 286.713 189.577 286.713 189.576 286.713C189.575 286.713 189.575 286.713 189.574 286.713C189.573 286.713 189.573 286.713 189.572 286.713C189.572 286.713 189.571 286.713 189.57 286.713C189.57 286.713 189.569 286.713 189.569 286.713C189.568 286.713 189.567 286.713 189.567 286.713C189.566 286.713 189.565 286.713 189.565 286.713C189.564 286.713 189.564 286.713 189.563 286.713C189.562 286.713 189.562 286.713 189.561 286.713C189.561 286.713 189.56 286.713 189.559 286.713C189.559 286.713 189.558 286.713 189.557 286.713C189.557 286.713 189.556 286.713 189.556 286.713C189.555 286.713 189.554 286.713 189.554 286.713C189.553 286.713 189.553 286.713 189.552 286.713C189.551 286.713 189.551 286.713 189.55 286.713C189.549 286.713 189.549 286.713 189.548 286.713C189.548 286.713 189.547 286.713 189.546 286.713C189.546 286.713 189.545 286.713 189.545 286.713C189.544 286.713 189.543 286.713 189.543 286.713C189.542 286.713 189.541 286.713 189.541 286.713C189.54 286.713 189.54 286.713 189.539 286.713C189.538 286.713 189.538 286.713 189.537 286.713C189.537 286.713 189.536 286.713 189.535 286.713C189.535 286.713 189.534 286.713 189.533 286.713C189.533 286.713 189.532 286.713 189.532 286.713C189.531 286.713 189.53 286.713 189.53 286.713C189.529 286.713 189.529 286.713 189.528 286.713C189.527 286.713 189.527 286.713 189.526 286.713C189.525 286.713 189.525 286.713 189.524 286.713C189.524 286.713 189.523 286.713 189.522 286.713C189.522 286.713 189.521 286.713 189.521 286.713C189.52 286.713 189.519 286.713 189.519 286.713C189.518 286.713 189.517 286.713 189.517 286.713C189.516 286.713 189.516 286.713 189.515 286.713C189.514 286.713 189.514 286.713 189.513 286.713C189.513 286.713 189.512 286.713 189.511 286.713C189.511 286.713 189.51 286.713 189.509 286.713C189.509 286.713 189.508 286.713 189.508 286.713C189.507 286.713 189.506 286.713 189.506 286.713C189.505 286.713 189.505 286.713 189.504 286.713C189.503 286.713 189.503 286.713 189.502 286.713C189.502 286.713 189.501 286.713 189.5 286.713C189.5 286.713 189.499 286.713 189.498 286.713C189.498 286.713 189.497 286.713 189.497 286.713C189.496 286.713 189.495 286.713 189.495 286.713C189.494 286.713 189.494 286.713 189.493 286.713C189.492 286.713 189.492 286.713 189.491 286.713C189.49 286.713 189.49 286.713 189.489 286.713C189.489 286.713 189.488 286.713 189.487 286.713C189.487 286.713 189.486 286.713 189.486 286.713C189.485 286.713 189.484 286.713 189.484 286.713C189.483 286.713 189.482 286.713 189.482 286.713C189.481 286.713 189.481 286.713 189.48 286.713C189.479 286.713 189.479 286.713 189.478 286.713C189.478 286.713 189.477 286.713 189.476 286.713C189.476 286.713 189.475 286.713 189.475 286.713C189.474 286.713 189.473 286.713 189.473 286.713C189.472 286.713 189.471 286.713 189.471 286.713C189.47 286.713 189.47 286.713 189.469 286.713C189.468 286.713 189.468 286.713 189.467 286.713C189.467 286.713 189.466 286.713 189.465 286.713C189.465 286.713 189.464 286.713 189.463 286.713C189.463 286.713 189.462 286.713 189.462 286.713C189.461 286.713 189.46 286.713 189.46 286.713C189.459 286.713 189.459 286.713 189.458 286.713C189.457 286.713 189.457 286.713 189.456 286.713C189.456 286.713 189.455 286.713 189.454 286.713C189.454 286.713 189.453 286.713 189.452 286.713C189.452 286.713 189.451 286.713 189.451 286.713C189.45 286.713 189.449 286.713 189.449 286.713C189.448 286.713 189.448 286.713 189.447 286.713C189.446 286.713 189.446 286.713 189.445 286.713C189.445 286.713 189.444 286.713 189.443 286.713C189.443 286.713 189.442 286.713 189.441 286.713C189.441 286.713 189.44 286.713 189.44 286.713C189.439 286.713 189.438 286.713 189.438 286.713C189.437 286.713 189.437 286.713 189.436 286.713C189.435 286.713 189.435 286.713 189.434 286.713C189.434 286.713 189.433 286.713 189.432 286.713C189.432 286.713 189.431 286.713 189.43 286.713C189.43 286.713 189.429 286.713 189.429 286.713C189.428 286.713 189.427 286.713 189.427 286.713C189.426 286.713 189.426 286.713 189.425 286.713C189.424 286.713 189.424 286.713 189.423 286.713C189.423 286.713 189.422 286.713 189.421 286.713C189.421 286.713 189.42 286.713 189.419 286.713C189.419 286.713 189.418 286.713 189.418 286.713C189.417 286.713 189.416 286.713 189.416 286.713C189.415 286.713 189.415 286.713 189.414 286.713C189.413 286.713 189.413 286.713 189.412 286.713C189.412 286.713 189.411 286.713 189.41 286.713C189.41 286.713 189.409 286.713 189.408 286.713C189.408 286.713 189.407 286.713 189.407 286.713C189.406 286.713 189.405 286.713 189.405 286.713C189.404 286.713 189.404 286.713 189.403 286.713C189.402 286.713 189.402 286.713 189.401 286.713C189.401 286.713 189.4 286.713 189.399 286.713C189.399 286.713 189.398 286.713 189.398 286.713C189.397 286.713 189.396 286.713 189.396 286.713C189.395 286.713 189.394 286.713 189.394 286.713C189.393 286.713 189.393 286.713 189.392 286.713C189.391 286.713 189.391 286.713 189.39 286.713C189.39 286.713 189.389 286.713 189.388 286.713C189.388 286.713 189.387 286.713 189.387 286.713C189.386 286.713 189.385 286.713 189.385 286.713C189.384 286.713 189.384 286.713 189.383 286.713C189.382 286.713 189.382 286.713 189.381 286.713C189.38 286.713 189.38 286.713 189.379 286.713C189.379 286.713 189.378 286.713 189.377 286.713C189.377 286.713 189.376 286.713 189.376 286.713C189.375 286.713 189.374 286.713 189.374 286.713C189.373 286.713 189.373 286.713 189.372 286.713C189.371 286.713 189.371 286.713 189.37 286.713C189.37 286.713 189.369 286.713 189.368 286.713C189.368 286.713 189.367 286.713 189.367 286.713C189.366 286.713 189.365 286.713 189.365 286.713C189.364 286.713 189.363 286.713 189.363 286.713C189.362 286.713 189.362 286.713 189.361 286.713C189.36 286.713 189.36 286.713 189.359 286.713C189.359 286.713 189.358 286.713 189.357 286.713C189.357 286.713 189.356 286.713 189.356 286.713C189.355 286.713 189.354 286.713 189.354 286.713C189.353 286.713 189.353 286.713 189.352 286.713C189.351 286.713 189.351 286.713 189.35 286.713C189.35 286.713 189.349 286.713 189.348 286.713C189.348 286.713 189.347 286.713 189.347 286.713C189.346 286.713 189.345 286.713 189.345 286.713C189.344 286.713 189.343 286.713 189.343 286.713C189.342 286.713 189.342 286.713 189.341 286.713C189.34 286.713 189.34 286.713 189.339 286.713C189.339 286.713 189.338 286.713 189.337 286.713C189.337 286.713 189.336 286.713 189.336 286.713C189.335 286.713 189.334 286.713 189.334 286.713C189.333 286.713 189.333 286.713 189.332 286.713C189.331 286.713 189.331 286.713 189.33 286.713C189.33 286.713 189.329 286.713 189.328 286.713C189.328 286.713 189.327 286.713 189.327 286.713C189.326 286.713 189.325 286.713 189.325 286.713C189.324 286.713 189.324 286.713 189.323 286.713C189.322 286.713 189.322 286.713 189.321 286.713C189.321 286.713 189.32 286.713 189.319 286.713C189.319 286.713 189.318 286.713 189.318 286.713C189.317 286.713 189.316 286.713 189.316 286.713C189.315 286.713 189.314 286.713 189.314 286.713C189.313 286.713 189.313 286.713 189.312 286.713C189.311 286.713 189.311 286.713 189.31 286.713C189.31 286.713 189.309 286.713 189.308 286.713C189.308 286.713 189.307 286.713 189.307 286.713C189.306 286.713 189.305 286.713 189.305 286.713C189.304 286.713 189.304 286.713 189.303 286.713C189.302 286.713 189.302 286.713 189.301 286.713C189.301 286.713 189.3 286.713 189.299 286.713C189.299 286.713 189.298 286.713 189.298 286.713C189.297 286.713 189.296 286.713 189.296 286.713C189.295 286.713 189.295 286.713 189.294 286.713C189.293 286.713 189.293 286.713 189.292 286.713C189.292 286.713 189.291 286.713 189.29 286.713C189.29 286.713 189.289 286.713 189.289 286.713C189.288 286.713 189.287 286.713 189.287 286.713C189.286 286.713 189.286 286.713 189.285 286.713C189.284 286.713 189.284 286.713 189.283 286.713C189.283 286.713 189.282 286.713 189.281 286.713C189.281 286.713 189.28 286.713 189.28 286.713C189.279 286.713 189.278 286.713 189.278 286.713C189.277 286.713 189.277 286.713 189.276 286.713C189.275 286.713 189.275 286.713 189.274 286.713C189.274 286.713 189.273 286.713 189.272 286.713C189.272 286.713 189.271 286.713 189.271 286.713C189.27 286.713 189.269 286.713 189.269 286.713C189.268 286.713 189.268 286.713 189.267 286.713C189.266 286.713 189.266 286.713 189.265 286.713C189.265 286.713 189.264 286.713 189.263 286.713C189.263 286.713 189.262 286.713 189.262 286.713C189.261 286.713 189.26 286.713 189.26 286.713C189.259 286.713 189.259 286.713 189.258 286.713C189.257 286.713 189.257 286.713 189.256 286.713C189.256 286.713 189.255 286.713 189.255 286.713C189.254 286.713 189.253 286.713 189.253 286.713C189.252 286.713 189.252 286.713 189.251 286.713C189.25 286.713 189.25 286.713 189.249 286.713C189.249 286.713 189.248 286.713 189.247 286.713C189.247 286.713 189.246 286.713 189.246 286.713C189.245 286.713 189.244 286.713 189.244 286.713C189.243 286.713 189.243 286.713 189.242 286.713C189.241 286.713 189.241 286.713 189.24 286.713C189.24 286.713 189.239 286.713 189.238 286.713C189.238 286.713 189.237 286.713 189.237 286.713C189.236 286.713 189.235 286.713 189.235 286.713C189.234 286.713 189.234 286.713 189.233 286.713C189.232 286.713 189.232 286.713 189.231 286.713C189.231 286.713 189.23 286.713 189.23 286.713C189.229 286.713 189.228 286.713 189.228 286.713C189.227 286.713 189.227 286.713 189.226 286.713C189.225 286.713 189.225 286.713 189.224 286.713C189.224 286.713 189.223 286.713 189.222 286.713C189.222 286.713 189.221 286.713 189.221 286.713C189.22 286.713 189.219 286.713 189.219 286.713C189.218 286.713 189.218 286.713 189.217 286.713C189.216 286.713 189.216 286.713 189.215 286.713C189.215 286.713 189.214 286.713 189.213 286.713C189.213 286.713 189.212 286.713 189.212 286.713C189.211 286.713 189.211 286.713 189.21 286.713C189.209 286.713 189.209 286.713 189.208 286.713C189.208 286.713 189.207 286.713 189.206 286.713C189.206 286.713 189.205 286.713 189.205 286.713C189.204 286.713 189.203 286.713 189.203 286.713C189.202 286.713 189.202 286.713 189.201 286.713C189.2 286.713 189.2 286.713 189.199 286.713C189.199 286.713 189.198 286.713 189.198 286.713C189.197 286.713 189.196 286.713 189.196 286.713C189.195 286.713 189.195 286.713 189.194 286.713C189.193 286.713 189.193 286.713 189.192 286.713C189.192 286.713 189.191 286.713 189.19 286.713C189.19 286.713 189.189 286.713 189.189 286.713C189.188 286.713 189.188 286.713 189.187 286.713C189.186 286.713 189.186 286.713 189.185 286.713C189.185 286.713 189.184 286.713 189.183 286.713C189.183 286.713 189.182 286.713 189.182 286.713C189.181 286.713 189.18 286.713 189.18 286.713C189.179 286.713 189.179 286.713 189.178 286.713C189.178 286.713 189.177 286.713 189.176 286.713C189.176 286.713 189.175 286.713 189.175 286.713C189.174 286.713 189.173 286.713 189.173 286.713C189.172 286.713 189.172 286.713 189.171 286.713C189.17 286.713 189.17 286.713 189.169 286.713C189.169 286.713 189.168 286.713 189.168 286.713C189.167 286.713 189.166 286.713 189.166 286.713C189.165 286.713 189.165 286.713 189.164 286.713C189.163 286.713 189.163 286.713 189.162 286.713C189.162 286.713 189.161 286.713 189.161 286.713C189.16 286.713 189.159 286.713 189.159 286.713C189.158 286.713 189.158 286.713 189.157 286.713C189.156 286.713 189.156 286.713 189.155 286.713C189.155 286.713 189.154 286.713 189.153 286.713C189.153 286.713 189.152 286.713 189.152 286.713C189.151 286.713 189.151 286.713 189.15 286.713C189.149 286.713 189.149 286.713 189.148 286.713C189.148 286.713 189.147 286.713 189.146 286.713V290.713ZM190.143 290.712C193.304 290.606 196.779 290.001 200.421 288.587L198.973 284.858C195.781 286.098 192.753 286.622 190.008 286.714L190.143 290.712ZM200.466 288.569C201.23 288.251 202.04 287.92 202.715 287.582L200.926 284.005C200.406 284.265 199.757 284.531 198.928 284.876L200.466 288.569ZM202.683 287.598C203.489 287.213 204.292 286.793 205.094 286.34L203.126 282.858C202.401 283.268 201.678 283.645 200.958 283.989L202.683 287.598ZM205.898 283.704L205.865 283.638L202.288 285.428L202.321 285.494L205.898 283.704ZM205.087 286.259L247.19 261.608L245.169 258.156L203.066 282.807L205.087 286.259ZM247.189 261.608C260.046 254.082 267.9 240.241 267.621 225.472L263.622 225.547C263.873 238.846 256.797 251.349 245.169 258.156L247.189 261.608ZM267.601 225.227C267.577 225.059 267.565 224.916 267.56 224.82C267.557 224.772 267.556 224.737 267.555 224.718C267.555 224.709 267.555 224.703 267.555 224.702C267.555 224.702 267.555 224.703 267.555 224.704C267.555 224.705 267.555 224.706 267.555 224.708C267.555 224.709 267.555 224.71 267.555 224.71C267.555 224.711 267.555 224.711 267.555 224.712C267.555 224.712 267.555 224.712 267.555 224.713C267.555 224.713 267.555 224.713 267.555 224.713C267.555 224.713 267.555 224.713 265.555 224.713C263.555 224.713 263.555 224.713 263.555 224.714C263.555 224.714 263.555 224.714 263.555 224.714C263.555 224.714 263.555 224.715 263.555 224.715C263.555 224.715 263.555 224.716 263.555 224.717C263.555 224.718 263.555 224.719 263.555 224.721C263.555 224.723 263.555 224.726 263.555 224.73C263.555 224.737 263.555 224.745 263.555 224.754C263.556 224.773 263.556 224.797 263.557 224.826C263.558 224.884 263.561 224.961 263.567 225.055C263.578 225.24 263.599 225.496 263.641 225.792L267.601 225.227Z" fill="#B8B2B2" mask="url(#path-5-inside-1_2835_134313)"/>
<path d="M155.855 205.665L157.861 203.705L173.921 220.229L173.933 220.242L173.945 220.254C177.146 223.413 182.398 223.446 185.665 220.22L185.665 220.22L185.675 220.21L231.984 173.707L233.976 175.684L187.673 222.213C187.673 222.214 187.672 222.214 187.672 222.214C185.513 224.373 182.659 225.443 179.822 225.443C176.956 225.443 174.138 224.376 171.978 222.221L155.855 205.665Z" fill="#706E6E" stroke="#B8B2B2" stroke-width="3.31778"/>
</svg>
