<svg width="300" height="300" viewBox="0 0 300 300" fill="none" xmlns="http://www.w3.org/2000/svg">
<path d="M226.298 251.588C247.598 235.569 263.322 213.258 271.244 187.811C279.166 162.364 278.885 135.07 270.44 109.792C261.996 84.5131 245.816 62.5302 224.19 46.9538C202.564 31.3773 176.588 22.9961 149.936 22.9961C123.285 22.9961 97.308 31.3773 75.6821 46.9538C54.0562 62.5302 37.8763 84.5131 29.432 109.792C20.9877 135.07 20.7067 162.364 28.6286 187.811C36.5506 213.258 52.2744 235.569 73.575 251.588H226.298Z" fill="#E2E7FE"/>
<path d="M290.715 223.875C290.715 202.342 227.715 184.875 149.933 184.875C72.1501 184.875 9.19507 202.342 9.19507 223.875V235.717C9.19507 257.257 72.1951 274.717 149.97 274.717C227.745 274.717 290.753 257.257 290.753 235.717L290.715 223.875Z" fill="#C18063"/>
<path d="M189.368 268.747C197.25 263.415 188.183 261.997 179.46 261.112C171.33 261.592 147.48 262.042 138.855 262.117C154.297 266.452 177.502 274.207 189.368 268.747Z" stroke="#FFDBB1" stroke-linecap="round" stroke-linejoin="round"/>
<path d="M67.4101 266.25C67.8471 265.483 68.0389 264.6 67.9598 263.721C67.8808 262.841 67.5345 262.007 66.9676 261.33C64.3351 257.768 47.7676 262.365 46.9951 256.575C47.3176 255.195 48.5626 255.075 49.5301 255.158C69.6451 256.35 81.5776 260.715 97.6576 270.863" stroke="#FFDBB1" stroke-linecap="round" stroke-linejoin="round"/>
<path d="M10.0349 238.957C15.1574 241.912 21.7349 242.662 26.8049 245.445C35.3699 248.685 14.9324 248.362 35.0549 255.877C36.9163 256.661 38.6405 257.737 40.1624 259.065" stroke="#FFDBB1" stroke-linecap="round" stroke-linejoin="round"/>
<path d="M145.613 273.39C139.83 269.333 118.695 269.985 108.435 268.14C106.935 267.87 104.25 263.325 110.633 262.605C112.193 262.425 116.175 261.038 117.645 260.708C112.538 260.355 105.06 259.403 100.208 258.9C98.9475 261.405 97.335 264.668 94.5375 263.183C92.505 261.683 90.1425 258.908 88.065 257.498C70.815 255.173 55.8675 253.2 43.485 249.173C45.1575 261.36 37.5825 250.328 28.3425 242.033C22.9425 239.46 20.3175 238.53 17.04 235.605C15.495 235.208 12.675 234.675 11.1975 234.945C10.5829 234.903 9.97312 234.808 9.375 234.66" stroke="#FFDBB1" stroke-linecap="round" stroke-linejoin="round"/>
<path d="M290.37 237.12C288.495 236.475 286.29 235.762 283.718 234.982" stroke="#FFDBB1" stroke-linecap="round" stroke-linejoin="round"/>
<path d="M257.708 260.003C263.888 251.655 244.92 257.955 240.915 257.333C240.818 257.333 240.788 257.123 240.915 257.055C251.22 248.573 272.198 246.368 285.96 244.785" stroke="#FFDBB1" stroke-linecap="round" stroke-linejoin="round"/>
<path d="M205.913 259.433C212.925 262.073 219.698 265.493 226.868 267.315" stroke="#FFDBB1" stroke-linecap="round" stroke-linejoin="round"/>
<path d="M210.833 265.275C206.843 260.527 190.388 264.45 202.853 268.455C203.648 268.567 208.56 269.062 208.373 266.895C206.678 265.792 203.633 264.922 202.178 265.912" stroke="#FFDBB1" stroke-linecap="round" stroke-linejoin="round"/>
<path d="M220.103 259.77C244.928 271.208 244.583 253.02 233.085 259.77" stroke="#FFDBB1" stroke-linecap="round" stroke-linejoin="round"/>
<path d="M149.618 261.9C226.997 261.9 289.725 244.342 289.725 222.682C289.725 201.023 226.997 183.465 149.618 183.465C72.2383 183.465 9.51001 201.023 9.51001 222.682C9.51001 244.342 72.2383 261.9 149.618 261.9Z" fill="white" stroke="white" stroke-width="1.26" stroke-miterlimit="10"/>
<path d="M243.728 227.895L51.2401 228.27C48.2401 228.27 43.5751 227.167 45.9901 223.267L72.3151 199.59L227.753 199.95L251.475 223.357C254.828 226.965 247.695 227.887 243.728 227.895Z" fill="#E8E5E5"/>
<path d="M225 86.4824H76.6349C75.0443 86.4824 73.7549 87.7718 73.7549 89.3624V194.107C73.7549 195.698 75.0443 196.987 76.6349 196.987H225C226.59 196.987 227.88 195.698 227.88 194.107V89.3624C227.88 87.7718 226.59 86.4824 225 86.4824Z" fill="#383434"/>
<path d="M224.73 192.458V90.9975C224.73 90.2395 224.115 89.625 223.357 89.625L78.2775 89.625C77.5195 89.625 76.905 90.2395 76.905 90.9975V192.458C76.905 193.216 77.5195 193.83 78.2775 193.83H223.357C224.115 193.83 224.73 193.216 224.73 192.458Z" fill="#D1CCCC"/>
<path d="M224.738 90.9078C224.738 90.5697 224.603 90.2454 224.364 90.0063C224.125 89.7671 223.801 89.6328 223.463 89.6328H78.1951C77.8563 89.6328 77.5312 89.7669 77.2909 90.0058C77.0506 90.2447 76.9146 90.569 76.9126 90.9078V101.708H224.738V90.9078Z" fill="#706E6E"/>
<path d="M235.8 224.618H61.8C56.9175 224.618 52.26 220.665 52.26 215.783V215.138C52.26 212.843 53.5275 211.2 55.1025 211.2L241.8 210.293C242.708 210.293 245.16 212.595 245.16 215.003V215.753C245.145 220.665 240.675 224.618 235.8 224.618Z" fill="#383434"/>
<path d="M242.633 211.98H54.2925C54.2757 211.981 54.2591 211.976 54.2449 211.967C54.2307 211.958 54.2195 211.945 54.213 211.93C54.2065 211.914 54.2048 211.897 54.2083 211.88C54.2118 211.864 54.2202 211.849 54.2325 211.838L73.8075 191.25L227.768 191.685L242.902 211.425C242.945 211.475 242.971 211.536 242.98 211.601C242.988 211.666 242.977 211.732 242.948 211.79C242.92 211.849 242.874 211.898 242.818 211.932C242.762 211.966 242.698 211.982 242.633 211.98Z" fill="#454545" stroke="#706E6E" stroke-miterlimit="10"/>
<path d="M85.4176 196.95L84.5701 199.95H185.783L185.265 196.95H85.4176Z" fill="#706E6E"/>
<path d="M225.457 196.95H188.265L188.782 199.95H227.76L225.457 196.95Z" fill="#706E6E"/>
<path d="M68.3251 203.925L64.9126 206.925H117.218V203.925H68.3251Z" fill="#706E6E"/>
<path d="M119.265 203.925V206.925H165.765V203.925H119.265Z" fill="#706E6E"/>
<path d="M231.322 203.925H168.765V206.925H234.015L231.322 203.925Z" fill="#706E6E"/>
<path d="M74.0475 196.95L70.98 199.95H82.0275L83.5275 196.95H74.0475Z" fill="#706E6E"/>
<path d="M143.392 109.095H88.3799C86.342 109.095 84.6899 110.747 84.6899 112.785V179.775C84.6899 181.813 86.342 183.465 88.3799 183.465H143.392C145.43 183.465 147.082 181.813 147.082 179.775V112.785C147.082 110.747 145.43 109.095 143.392 109.095Z" fill="#B8B2B2"/>
<path d="M213.465 109.095H158.452C156.415 109.095 154.762 110.747 154.762 112.785V120.382C154.762 122.42 156.415 124.072 158.452 124.072H213.465C215.503 124.072 217.155 122.42 217.155 120.382V112.785C217.155 110.747 215.503 109.095 213.465 109.095Z" fill="#B8B2B2"/>
<path d="M213.465 131.303H158.452C156.415 131.303 154.762 132.955 154.762 134.993V142.59C154.762 144.628 156.415 146.28 158.452 146.28H213.465C215.503 146.28 217.155 144.628 217.155 142.59V134.993C217.155 132.955 215.503 131.303 213.465 131.303Z" fill="#B8B2B2"/>
<path d="M213.465 153.022H158.452C156.415 153.022 154.762 154.675 154.762 156.712V179.775C154.762 181.813 156.415 183.465 158.452 183.465H213.465C215.503 183.465 217.155 181.813 217.155 179.775V156.712C217.155 154.675 215.503 153.022 213.465 153.022Z" fill="#B8B2B2"/>
<path d="M160.74 158.798H210.465" stroke="#706E6E" stroke-width="2" stroke-miterlimit="10" stroke-linecap="round"/>
<path d="M160.74 165.69H201.585" stroke="#706E6E" stroke-width="2" stroke-miterlimit="10" stroke-linecap="round"/>
<path d="M160.74 172.357H190.973" stroke="#706E6E" stroke-width="2" stroke-miterlimit="10" stroke-linecap="round"/>
<path d="M91.0276 115.808H140.745" stroke="#706E6E" stroke-width="2" stroke-miterlimit="10" stroke-linecap="round"/>
<path d="M91.0276 122.707H107.033" stroke="#706E6E" stroke-width="2" stroke-miterlimit="10" stroke-linecap="round"/>
<path d="M111.833 122.707H137.468" stroke="#706E6E" stroke-width="2" stroke-miterlimit="10" stroke-linecap="round"/>
<path d="M91.0276 129.367H131.048" stroke="#706E6E" stroke-width="2" stroke-miterlimit="10" stroke-linecap="round"/>
<path d="M91.0276 158.798H131.048" stroke="#706E6E" stroke-width="2" stroke-miterlimit="10" stroke-linecap="round"/>
<path d="M91.0276 165.69H140.745" stroke="#706E6E" stroke-width="2" stroke-miterlimit="10" stroke-linecap="round"/>
<path d="M101.1 137.58H93.8476C92.2901 137.58 91.0276 138.843 91.0276 140.4V147.653C91.0276 149.21 92.2901 150.473 93.8476 150.473H101.1C102.658 150.473 103.92 149.21 103.92 147.653V140.4C103.92 138.843 102.658 137.58 101.1 137.58Z" stroke="#706E6E" stroke-width="2" stroke-miterlimit="10" stroke-linecap="round"/>
<path d="M119.512 137.58H112.26C110.702 137.58 109.44 138.843 109.44 140.4V147.653C109.44 149.21 110.702 150.473 112.26 150.473H119.512C121.07 150.473 122.332 149.21 122.332 147.653V140.4C122.332 138.843 121.07 137.58 119.512 137.58Z" stroke="#706E6E" stroke-width="2" stroke-miterlimit="10" stroke-linecap="round"/>
<path d="M137.925 137.88H130.673C129.115 137.88 127.853 139.142 127.853 140.7V147.952C127.853 149.51 129.115 150.772 130.673 150.772H137.925C139.482 150.772 140.745 149.51 140.745 147.952V140.7C140.745 139.142 139.482 137.88 137.925 137.88Z" stroke="#706E6E" stroke-width="2" stroke-miterlimit="10" stroke-linecap="round"/>
<path d="M151.17 178.058C157.103 178.058 162.904 176.298 167.837 173.002C172.771 169.705 176.616 165.02 178.886 159.538C181.157 154.056 181.751 148.024 180.593 142.205C179.436 136.385 176.579 131.04 172.383 126.844C168.188 122.649 162.842 119.792 157.023 118.634C151.203 117.477 145.171 118.071 139.689 120.341C134.208 122.612 129.522 126.457 126.226 131.391C122.929 136.324 121.17 142.124 121.17 148.058C121.17 156.014 124.331 163.645 129.957 169.271C135.583 174.897 143.213 178.058 151.17 178.058Z" fill="#E8E5E5"/>
<path d="M151.17 149.835V133.702" stroke="#706E6E" stroke-width="4" stroke-miterlimit="10"/>
<path d="M151.17 161.25C151.723 161.25 152.264 161.086 152.724 160.779C153.184 160.471 153.543 160.035 153.755 159.523C153.966 159.012 154.022 158.45 153.914 157.907C153.806 157.364 153.539 156.866 153.148 156.475C152.757 156.083 152.258 155.817 151.716 155.709C151.173 155.601 150.611 155.656 150.099 155.868C149.588 156.08 149.151 156.439 148.844 156.899C148.537 157.359 148.373 157.899 148.373 158.453C148.373 159.195 148.667 159.906 149.192 160.431C149.717 160.956 150.428 161.25 151.17 161.25Z" fill="#706E6E"/>
</svg>
