<svg width="300" height="300" viewBox="0 0 300 300" fill="none" xmlns="http://www.w3.org/2000/svg">
<path d="M225.983 253.088C247.283 237.069 263.007 214.758 270.929 189.311C278.851 163.864 278.57 136.57 270.126 111.292C261.681 86.0131 245.501 64.0302 223.875 48.4538C202.25 32.8773 176.273 24.4961 149.621 24.4961C122.97 24.4961 96.993 32.8773 75.3671 48.4538C53.7412 64.0302 37.5613 86.0131 29.1171 111.292C20.6728 136.57 20.3917 163.864 28.3137 189.311C36.2357 214.758 51.9595 237.069 73.26 253.088H225.983Z" fill="#FFF4DB"/>
<path d="M290.715 223.875C290.715 202.342 227.715 184.875 149.94 184.875C72.165 184.875 9.19495 202.342 9.19495 223.875V235.717C9.19495 257.257 72.195 274.717 149.977 274.717C227.76 274.717 290.752 257.257 290.752 235.717L290.715 223.875Z" fill="#C18063"/>
<path d="M189.368 268.747C197.25 263.415 188.183 261.997 179.46 261.112C171.33 261.592 147.48 262.042 138.855 262.117C154.305 266.452 177.502 274.207 189.368 268.747Z" stroke="#FFDBB1" stroke-linecap="round" stroke-linejoin="round"/>
<path d="M67.41 266.25C67.847 265.483 68.0388 264.6 67.9597 263.721C67.8806 262.841 67.5344 262.007 66.9675 261.33C64.3425 257.768 47.775 262.365 46.995 256.575C47.3175 255.195 48.5625 255.075 49.5375 255.158C69.645 256.35 81.5775 260.715 97.6575 270.863" stroke="#FFDBB1" stroke-linecap="round" stroke-linejoin="round"/>
<path d="M10.035 238.957C15.1575 241.912 21.735 242.662 26.8125 245.445C35.37 248.685 14.94 248.362 35.025 255.877C36.8864 256.661 38.6106 257.737 40.1325 259.065" stroke="#FFDBB1" stroke-linecap="round" stroke-linejoin="round"/>
<path d="M145.613 273.39C139.83 269.333 118.695 269.985 108.435 268.14C106.935 267.87 104.25 263.325 110.633 262.605C112.193 262.425 116.175 261.038 117.645 260.708C112.545 260.355 105.06 259.403 100.208 258.9C98.9475 261.405 97.335 264.668 94.5375 263.183C92.505 261.683 90.1425 258.908 88.065 257.498C70.815 255.173 55.8675 253.2 43.485 249.173C45.1575 261.36 37.5825 250.328 28.3425 242.033C22.9425 239.46 20.325 238.53 17.04 235.605C15.495 235.208 12.675 234.675 11.1975 234.945C10.5829 234.903 9.97312 234.808 9.375 234.66" stroke="#FFDBB1" stroke-linecap="round" stroke-linejoin="round"/>
<path d="M290.37 237.12C288.495 236.475 286.29 235.762 283.718 234.982" stroke="#FFDBB1" stroke-linecap="round" stroke-linejoin="round"/>
<path d="M257.708 260.003C263.888 251.655 244.92 257.955 240.915 257.333C240.818 257.333 240.795 257.123 240.915 257.055C251.22 248.573 272.198 246.368 285.96 244.785" stroke="#FFDBB1" stroke-linecap="round" stroke-linejoin="round"/>
<path d="M205.92 259.433C212.925 262.073 219.698 265.493 226.868 267.315" stroke="#FFDBB1" stroke-linecap="round" stroke-linejoin="round"/>
<path d="M210.833 265.275C206.843 260.527 190.388 264.45 202.853 268.455C203.648 268.567 208.56 269.062 208.373 266.895C206.678 265.792 203.633 264.922 202.178 265.912" stroke="#FFDBB1" stroke-linecap="round" stroke-linejoin="round"/>
<path d="M220.103 259.77C244.928 271.208 244.583 253.02 233.085 259.77" stroke="#FFDBB1" stroke-linecap="round" stroke-linejoin="round"/>
<path d="M149.618 261.9C226.997 261.9 289.725 244.342 289.725 222.682C289.725 201.023 226.997 183.465 149.618 183.465C72.2383 183.465 9.51001 201.023 9.51001 222.682C9.51001 244.342 72.2383 261.9 149.618 261.9Z" fill="white" stroke="white" stroke-width="1.26" stroke-miterlimit="10"/>
<path d="M243.727 227.895L51.2399 228.27C48.2399 228.27 43.5749 227.167 45.9899 223.267L72.3149 199.59L227.752 199.95L251.475 223.357C254.827 226.965 247.695 227.887 243.727 227.895Z" fill="#E8E5E5"/>
<path d="M225 86.4824H76.635C75.0444 86.4824 73.755 87.7718 73.755 89.3624V194.107C73.755 195.698 75.0444 196.987 76.635 196.987H225C226.591 196.987 227.88 195.698 227.88 194.107V89.3624C227.88 87.7718 226.591 86.4824 225 86.4824Z" fill="#383434"/>
<path d="M224.73 192.465V91.0053C224.73 90.2473 224.115 89.6328 223.357 89.6328L78.2775 89.6328C77.5195 89.6328 76.905 90.2473 76.905 91.0053V192.465C76.905 193.223 77.5195 193.838 78.2775 193.838H223.357C224.115 193.838 224.73 193.223 224.73 192.465Z" fill="#F9F1EC"/>
<path d="M224.738 90.9078C224.738 90.5697 224.603 90.2454 224.364 90.0063C224.125 89.7671 223.801 89.6328 223.463 89.6328H78.195C77.8569 89.6328 77.5326 89.7671 77.2935 90.0063C77.0544 90.2454 76.92 90.5697 76.92 90.9078V101.708H224.745L224.738 90.9078Z" fill="#EA1717"/>
<path d="M235.8 224.618H61.8C56.925 224.618 52.26 220.665 52.26 215.783V215.138C52.26 212.843 53.535 211.2 55.1025 211.2L241.8 210.293C242.708 210.293 245.16 212.595 245.16 215.003V215.753C245.145 220.665 240.675 224.618 235.8 224.618Z" fill="#383434"/>
<path d="M242.633 211.98H54.2925C54.2757 211.981 54.2591 211.976 54.2449 211.967C54.2307 211.958 54.2195 211.945 54.213 211.93C54.2065 211.914 54.2048 211.897 54.2083 211.88C54.2118 211.864 54.2202 211.849 54.2325 211.838L73.8075 191.25L227.768 191.685L242.902 211.425C242.945 211.475 242.971 211.536 242.98 211.601C242.988 211.666 242.977 211.732 242.948 211.79C242.92 211.849 242.874 211.898 242.818 211.932C242.762 211.966 242.698 211.982 242.633 211.98Z" fill="#454545" stroke="#706E6E" stroke-miterlimit="10"/>
<path d="M85.4174 196.95L84.5699 199.95H185.782L185.265 196.95H85.4174Z" fill="#706E6E"/>
<path d="M225.458 196.95H188.265L188.783 199.95H227.76L225.458 196.95Z" fill="#706E6E"/>
<path d="M68.325 203.925L64.9125 206.925H117.217V203.925H68.325Z" fill="#706E6E"/>
<path d="M119.265 203.925V206.925H165.765V203.925H119.265Z" fill="#706E6E"/>
<path d="M231.323 203.925H168.765V206.925H234.015L231.323 203.925Z" fill="#706E6E"/>
<path d="M74.0475 196.95L70.98 199.95H82.0275L83.5275 196.95H74.0475Z" fill="#706E6E"/>
<path d="M143.392 109.095H88.3799C86.342 109.095 84.6899 110.747 84.6899 112.785V179.775C84.6899 181.813 86.342 183.465 88.3799 183.465H143.392C145.43 183.465 147.082 181.813 147.082 179.775V112.785C147.082 110.747 145.43 109.095 143.392 109.095Z" fill="white"/>
<path d="M213.465 109.095H158.452C156.415 109.095 154.762 110.747 154.762 112.785V120.382C154.762 122.42 156.415 124.072 158.452 124.072H213.465C215.503 124.072 217.155 122.42 217.155 120.382V112.785C217.155 110.747 215.503 109.095 213.465 109.095Z" fill="white"/>
<path d="M213.465 131.303H158.452C156.415 131.303 154.762 132.955 154.762 134.993V142.59C154.762 144.628 156.415 146.28 158.452 146.28H213.465C215.503 146.28 217.155 144.628 217.155 142.59V134.993C217.155 132.955 215.503 131.303 213.465 131.303Z" fill="white"/>
<path d="M213.465 153.022H158.452C156.415 153.022 154.762 154.675 154.762 156.712V179.775C154.762 181.813 156.415 183.465 158.452 183.465H213.465C215.503 183.465 217.155 181.813 217.155 179.775V156.712C217.155 154.675 215.503 153.022 213.465 153.022Z" fill="white"/>
<path d="M160.74 158.798H210.465" stroke="#706E6E" stroke-width="2" stroke-miterlimit="10" stroke-linecap="round"/>
<path d="M160.74 165.69H201.585" stroke="#706E6E" stroke-width="2" stroke-miterlimit="10" stroke-linecap="round"/>
<path d="M160.74 172.357H190.973" stroke="#706E6E" stroke-width="2" stroke-miterlimit="10" stroke-linecap="round"/>
<path d="M91.0275 115.808H140.745" stroke="#706E6E" stroke-width="2" stroke-miterlimit="10" stroke-linecap="round"/>
<path d="M91.0275 122.707H107.032" stroke="#706E6E" stroke-width="2" stroke-miterlimit="10" stroke-linecap="round"/>
<path d="M111.833 122.707H137.468" stroke="#706E6E" stroke-width="2" stroke-miterlimit="10" stroke-linecap="round"/>
<path d="M91.0275 129.367H131.047" stroke="#706E6E" stroke-width="2" stroke-miterlimit="10" stroke-linecap="round"/>
<path d="M91.0275 158.798H131.047" stroke="#706E6E" stroke-width="2" stroke-miterlimit="10" stroke-linecap="round"/>
<path d="M91.0275 165.69H140.745" stroke="#706E6E" stroke-width="2" stroke-miterlimit="10" stroke-linecap="round"/>
<path d="M101.1 137.58H93.8475C92.29 137.58 91.0275 138.843 91.0275 140.4V147.653C91.0275 149.21 92.29 150.473 93.8475 150.473H101.1C102.657 150.473 103.92 149.21 103.92 147.653V140.4C103.92 138.843 102.657 137.58 101.1 137.58Z" stroke="#706E6E" stroke-width="2" stroke-miterlimit="10" stroke-linecap="round"/>
<path d="M119.512 137.58H112.26C110.702 137.58 109.44 138.843 109.44 140.4V147.653C109.44 149.21 110.702 150.473 112.26 150.473H119.512C121.07 150.473 122.332 149.21 122.332 147.653V140.4C122.332 138.843 121.07 137.58 119.512 137.58Z" stroke="#706E6E" stroke-width="2" stroke-miterlimit="10" stroke-linecap="round"/>
<path d="M137.925 137.88H130.673C129.115 137.88 127.853 139.142 127.853 140.7V147.952C127.853 149.51 129.115 150.772 130.673 150.772H137.925C139.482 150.772 140.745 149.51 140.745 147.952V140.7C140.745 139.142 139.482 137.88 137.925 137.88Z" stroke="#706E6E" stroke-width="2" stroke-miterlimit="10" stroke-linecap="round"/>
<path d="M150.945 178.365C156.878 178.365 162.679 176.606 167.612 173.309C172.546 170.013 176.391 165.328 178.661 159.846C180.932 154.364 181.526 148.332 180.368 142.513C179.211 136.693 176.354 131.348 172.158 127.152C167.963 122.956 162.617 120.099 156.798 118.942C150.978 117.784 144.946 118.378 139.464 120.649C133.983 122.919 129.297 126.765 126.001 131.698C122.704 136.632 120.945 142.432 120.945 148.365C120.945 156.322 124.106 163.952 129.732 169.578C135.358 175.205 142.988 178.365 150.945 178.365Z" fill="#FAAF00"/>
<path d="M150.945 150.142V134.01" stroke="white" stroke-width="4" stroke-miterlimit="10"/>
<path d="M150.945 161.573C151.498 161.573 152.039 161.408 152.499 161.101C152.959 160.794 153.318 160.357 153.53 159.846C153.741 159.334 153.797 158.772 153.689 158.229C153.581 157.687 153.314 157.188 152.923 156.797C152.532 156.406 152.033 156.139 151.491 156.031C150.948 155.923 150.386 155.979 149.874 156.19C149.363 156.402 148.926 156.761 148.619 157.221C148.312 157.681 148.147 158.222 148.147 158.775C148.147 159.517 148.442 160.229 148.967 160.753C149.491 161.278 150.203 161.573 150.945 161.573Z" fill="white"/>
</svg>
