<svg width="48" height="48" viewBox="0 0 48 48" fill="none" xmlns="http://www.w3.org/2000/svg">
<circle cx="24" cy="24" r="20" stroke="white" stroke-width="4"/>
<path d="M17.6875 19.5781H21.4688C21.4844 17.8438 22.5156 16.5 24.4844 16.5C25.9844 16.5 27.4062 17.2812 27.4062 19.125C27.4062 20.6094 26.4531 21.2969 25 22.3281C23.25 23.5312 22.0625 25.0156 22.2188 27.3594L22.2344 28.3125H25.9531V27.4844C25.9531 25.7656 26.6562 25.2656 28.4844 23.9375C29.9844 22.8594 31.5781 21.6094 31.5781 18.9062C31.5781 15.0938 28.3594 13.2344 24.7188 13.2344C21.2031 13.2344 17.5469 14.9375 17.6875 19.5781ZM21.7969 33.1094C21.7969 34.4062 22.8594 35.3125 24.1562 35.3125C25.4531 35.3125 26.5312 34.4062 26.5312 33.1094C26.5312 31.8125 25.4531 30.9062 24.1562 30.9062C22.8594 30.9062 21.7969 31.8125 21.7969 33.1094Z" fill="white"/>
</svg>
