<svg width="300" height="300" viewBox="0 0 300 300" fill="none" xmlns="http://www.w3.org/2000/svg">
<path d="M224.947 253.418C240.703 241.59 253.486 226.255 262.285 208.629C271.084 191.002 275.657 171.568 275.64 151.868C275.64 135.184 272.354 118.663 265.969 103.249C259.584 87.8349 250.225 73.8295 238.428 62.0324C226.63 50.2353 212.624 40.8776 197.209 34.4935C181.795 28.1095 165.274 24.8242 148.59 24.8252C114.896 24.8252 82.581 38.2097 58.7547 62.0346C34.9284 85.8595 21.542 118.173 21.54 151.868C21.5251 171.568 26.0983 191.001 34.8972 208.628C43.696 226.254 56.4787 241.589 72.2326 253.418H224.947Z" fill="#F9F1EC"/>
<path d="M290.715 223.875C290.715 202.335 227.715 184.875 149.933 184.875C72.1501 184.875 9.15744 202.335 9.15744 223.875V235.748C9.15744 257.288 72.1576 274.748 149.933 274.748C227.708 274.748 290.715 257.288 290.715 235.748V223.875Z" fill="#C18063"/>
<path d="M189.367 268.747C197.242 263.415 188.182 261.997 179.46 261.112C171.33 261.592 147.48 262.035 138.855 262.117C154.298 266.452 177.502 274.2 189.367 268.747Z" stroke="#FFDBB1" stroke-linecap="round" stroke-linejoin="round"/>
<path d="M67.4101 266.227C67.845 265.459 68.0355 264.577 67.9564 263.698C67.8774 262.819 67.5325 261.985 66.9675 261.307C64.335 257.737 47.7676 262.342 46.9951 256.545C47.3176 255.172 48.5625 255.045 49.53 255.135C69.645 256.327 81.5699 260.692 97.6574 270.84" stroke="#FFDBB1" stroke-linecap="round" stroke-linejoin="round"/>
<path d="M10.0351 238.957C15.1576 241.912 21.735 242.662 26.805 245.444C35.37 248.684 14.9325 248.362 35.055 255.87C36.915 256.659 38.6387 257.737 40.1625 259.065" stroke="#FFDBB1" stroke-linecap="round" stroke-linejoin="round"/>
<path d="M145.613 273.39C139.83 269.325 118.695 269.985 108.435 268.14C106.935 267.87 104.25 263.318 110.632 262.605C112.192 262.425 116.175 261.038 117.645 260.708C112.538 260.355 105.06 259.403 100.2 258.9C98.94 261.405 97.335 264.668 94.5375 263.183C92.505 261.683 90.1424 258.908 88.0649 257.498C70.8149 255.173 55.8675 253.193 43.485 249.173C45.1575 261.36 37.5825 250.328 28.3425 242.025C22.9425 239.453 20.3174 238.523 17.0399 235.598C15.4949 235.208 12.6749 234.675 11.1974 234.945C10.5828 234.903 9.97309 234.808 9.37497 234.66" stroke="#FFDBB1" stroke-linecap="round" stroke-linejoin="round"/>
<path d="M290.37 237.12C288.495 236.475 286.283 235.762 283.718 234.982" stroke="#FFDBB1" stroke-linecap="round" stroke-linejoin="round"/>
<path d="M257.708 260.002C263.888 251.655 244.92 257.955 240.915 257.332C240.817 257.332 240.787 257.122 240.915 257.055C251.22 248.572 272.198 246.367 285.96 244.777" stroke="#FFDBB1" stroke-linecap="round" stroke-linejoin="round"/>
<path d="M205.912 259.433C212.925 262.073 219.697 265.493 226.867 267.315" stroke="#FFDBB1" stroke-linecap="round" stroke-linejoin="round"/>
<path d="M210.833 265.275C206.843 260.527 190.38 264.45 202.852 268.455C203.647 268.567 208.56 269.062 208.373 266.895C206.678 265.785 203.633 264.922 202.178 265.912" stroke="#FFDBB1" stroke-linecap="round" stroke-linejoin="round"/>
<path d="M220.102 259.748C244.927 271.185 244.582 252.998 233.085 259.748" stroke="#FFDBB1" stroke-linecap="round" stroke-linejoin="round"/>
<path d="M149.618 261.9C226.997 261.9 289.725 244.342 289.725 222.682C289.725 201.023 226.997 183.465 149.618 183.465C72.2383 183.465 9.51001 201.023 9.51001 222.682C9.51001 244.342 72.2383 261.9 149.618 261.9Z" fill="white" stroke="white" stroke-width="1.26" stroke-miterlimit="10"/>
<path d="M243.727 227.895L51.2174 228.248C48.1799 228.248 43.5524 227.153 45.9674 223.253L72.2925 199.575L227.738 199.935L251.46 223.335C254.827 226.965 247.717 227.888 243.727 227.895Z" fill="#E8E5E5"/>
<path d="M225 86.4824H76.635C75.0444 86.4824 73.755 87.7718 73.755 89.3624V194.107C73.755 195.698 75.0444 196.987 76.635 196.987H225C226.591 196.987 227.88 195.698 227.88 194.107V89.3624C227.88 87.7718 226.591 86.4824 225 86.4824Z" fill="#383434"/>
<path d="M224.737 192.457V90.9974C224.737 90.2394 224.123 89.625 223.365 89.625L78.2849 89.625C77.5269 89.625 76.9125 90.2394 76.9125 90.9974V192.457C76.9125 193.215 77.5269 193.83 78.2849 193.83H223.365C224.123 193.83 224.737 193.215 224.737 192.457Z" fill="#F9F1EC"/>
<path d="M224.738 90.9001C224.738 90.562 224.603 90.2376 224.364 89.9985C224.125 89.7594 223.801 89.625 223.462 89.625H78.2175C77.878 89.627 77.5529 89.7628 77.3128 90.0029C77.0727 90.243 76.937 90.5679 76.935 90.9075V101.708H224.767L224.738 90.9001Z" fill="#EA1717"/>
<path d="M235.8 224.618H61.8001C56.9176 224.618 52.2599 220.665 52.2599 215.783V215.138C52.2599 212.843 53.5274 211.2 55.1024 211.2L241.8 210.285C242.708 210.285 245.16 212.588 245.16 214.995V215.783C245.145 220.665 240.675 224.618 235.8 224.618Z" fill="#383434"/>
<path d="M242.632 211.98H54.2926C54.2757 211.981 54.259 211.977 54.2448 211.968C54.2306 211.959 54.2194 211.945 54.2129 211.93C54.2064 211.914 54.2048 211.897 54.2083 211.881C54.2118 211.864 54.2202 211.85 54.2325 211.838L73.8076 191.258L227.767 191.693L242.903 211.433C242.942 211.483 242.967 211.543 242.974 211.607C242.981 211.671 242.969 211.735 242.941 211.792C242.913 211.85 242.869 211.898 242.814 211.931C242.759 211.964 242.696 211.982 242.632 211.98Z" fill="#454545" stroke="#706E6E" stroke-miterlimit="10"/>
<path d="M85.4175 196.95L84.57 199.95H185.783L185.265 196.95H85.4175Z" fill="#706E6E"/>
<path d="M225.458 196.95H188.265L188.783 199.95H227.76L225.458 196.95Z" fill="#706E6E"/>
<path d="M68.325 203.925L64.9125 206.925H117.217V203.925H68.325Z" fill="#706E6E"/>
<path d="M119.265 203.925V206.925H165.765V203.925H119.265Z" fill="#706E6E"/>
<path d="M231.322 203.925H168.765V206.925H234.015L231.322 203.925Z" fill="#706E6E"/>
<path d="M74.0475 196.95L70.98 199.95H82.0275L83.5275 196.95H74.0475Z" fill="#706E6E"/>
<path d="M143.393 109.095H88.38C86.3421 109.095 84.69 110.747 84.69 112.785V179.775C84.69 181.813 86.3421 183.465 88.38 183.465H143.393C145.43 183.465 147.083 181.813 147.083 179.775V112.785C147.083 110.747 145.43 109.095 143.393 109.095Z" fill="white"/>
<path d="M213.465 109.095H158.453C156.415 109.095 154.763 110.747 154.763 112.785V120.382C154.763 122.42 156.415 124.072 158.453 124.072H213.465C215.503 124.072 217.155 122.42 217.155 120.382V112.785C217.155 110.747 215.503 109.095 213.465 109.095Z" fill="white"/>
<path d="M213.465 131.303H158.453C156.415 131.303 154.763 132.955 154.763 134.993V142.59C154.763 144.628 156.415 146.28 158.453 146.28H213.465C215.503 146.28 217.155 144.628 217.155 142.59V134.993C217.155 132.955 215.503 131.303 213.465 131.303Z" fill="white"/>
<path d="M213.465 153.022H158.453C156.415 153.022 154.763 154.675 154.763 156.712V179.775C154.763 181.813 156.415 183.465 158.453 183.465H213.465C215.503 183.465 217.155 181.813 217.155 179.775V156.712C217.155 154.675 215.503 153.022 213.465 153.022Z" fill="white"/>
<path d="M160.74 158.798H210.465" stroke="#706E6E" stroke-width="2" stroke-miterlimit="10" stroke-linecap="round"/>
<path d="M160.74 165.69H201.585" stroke="#706E6E" stroke-width="2" stroke-miterlimit="10" stroke-linecap="round"/>
<path d="M160.74 172.357H190.973" stroke="#706E6E" stroke-width="2" stroke-miterlimit="10" stroke-linecap="round"/>
<path d="M91.0275 115.808H140.745" stroke="#706E6E" stroke-width="2" stroke-miterlimit="10" stroke-linecap="round"/>
<path d="M91.0275 122.707H107.032" stroke="#706E6E" stroke-width="2" stroke-miterlimit="10" stroke-linecap="round"/>
<path d="M111.832 122.707H137.467" stroke="#706E6E" stroke-width="2" stroke-miterlimit="10" stroke-linecap="round"/>
<path d="M91.0275 129.367H131.047" stroke="#706E6E" stroke-width="2" stroke-miterlimit="10" stroke-linecap="round"/>
<path d="M91.0275 158.798H131.047" stroke="#706E6E" stroke-width="2" stroke-miterlimit="10" stroke-linecap="round"/>
<path d="M91.0275 165.69H140.745" stroke="#706E6E" stroke-width="2" stroke-miterlimit="10" stroke-linecap="round"/>
<path d="M101.1 137.58H93.8475C92.29 137.58 91.0275 138.843 91.0275 140.4V147.653C91.0275 149.21 92.29 150.473 93.8475 150.473H101.1C102.657 150.473 103.92 149.21 103.92 147.653V140.4C103.92 138.843 102.657 137.58 101.1 137.58Z" stroke="#706E6E" stroke-width="2" stroke-miterlimit="10" stroke-linecap="round"/>
<path d="M119.513 137.58H112.26C110.703 137.58 109.44 138.843 109.44 140.4V147.653C109.44 149.21 110.703 150.473 112.26 150.473H119.513C121.07 150.473 122.333 149.21 122.333 147.653V140.4C122.333 138.843 121.07 137.58 119.513 137.58Z" stroke="#706E6E" stroke-width="2" stroke-miterlimit="10" stroke-linecap="round"/>
<path d="M137.925 137.88H130.673C129.115 137.88 127.853 139.142 127.853 140.7V147.952C127.853 149.51 129.115 150.772 130.673 150.772H137.925C139.482 150.772 140.745 149.51 140.745 147.952V140.7C140.745 139.142 139.482 137.88 137.925 137.88Z" stroke="#706E6E" stroke-width="2" stroke-miterlimit="10" stroke-linecap="round"/>
<path d="M149.617 178.058C157.574 178.058 165.205 174.897 170.831 169.271C176.457 163.645 179.617 156.014 179.617 148.058C179.617 140.101 176.457 132.47 170.831 126.844C165.205 121.218 157.574 118.058 149.617 118.058C141.661 118.058 134.03 121.218 128.404 126.844C122.778 132.47 119.617 140.101 119.617 148.058C119.617 156.014 122.778 163.645 128.404 169.271C134.03 174.897 141.661 178.058 149.617 178.058Z" fill="#FF3838"/>
<path d="M149.617 149.835V133.702" stroke="white" stroke-width="4" stroke-miterlimit="10"/>
<path d="M149.617 161.265C149.984 161.266 150.348 161.195 150.688 161.055C151.027 160.915 151.335 160.71 151.595 160.451C151.855 160.192 152.061 159.884 152.202 159.545C152.343 159.206 152.415 158.842 152.415 158.475C152.415 157.733 152.12 157.022 151.596 156.497C151.071 155.972 150.359 155.678 149.617 155.678C148.877 155.68 148.167 155.975 147.644 156.5C147.121 157.024 146.827 157.735 146.827 158.475C146.827 159.215 147.121 159.925 147.645 160.448C148.168 160.971 148.878 161.265 149.617 161.265Z" fill="white"/>
</svg>
