<svg width="138" height="138" viewBox="0 0 138 138" fill="none" xmlns="http://www.w3.org/2000/svg">
<path d="M66.4263 130.969C98.7035 130.969 124.869 104.803 124.869 72.5259C124.869 40.2487 98.7035 14.0829 66.4263 14.0829C34.1491 14.0829 7.98331 40.2487 7.98331 72.5259C7.98331 104.803 34.1491 130.969 66.4263 130.969Z" fill="#F9F1EC"/>
<path d="M29.739 19.8064C29.7398 19.7869 29.7455 19.768 29.7556 19.7512C29.7656 19.7345 29.7796 19.7206 29.7964 19.7106C29.8132 19.7007 29.8322 19.6951 29.8517 19.6944C29.8711 19.6936 29.8905 19.6978 29.908 19.7064C32.3161 20.9928 34.996 21.687 37.7258 21.7315C37.7456 21.7315 37.7651 21.7366 37.7824 21.7464C37.7996 21.7562 37.8141 21.7703 37.8242 21.7874C37.8343 21.8045 37.8398 21.824 37.8401 21.8438C37.8403 21.8637 37.8355 21.8832 37.8258 21.9006C36.5391 24.3097 35.8448 26.9908 35.8006 29.7217C35.8001 29.7413 35.7946 29.7604 35.7846 29.7772C35.7745 29.794 35.7603 29.8079 35.7433 29.8176C35.7263 29.8274 35.7071 29.8325 35.6875 29.8326C35.6679 29.8328 35.6487 29.8278 35.6316 29.8183C33.2235 28.532 30.5437 27.8378 27.8139 27.7932C27.7945 27.793 27.7756 27.7878 27.7587 27.7781C27.7419 27.7685 27.7278 27.7548 27.7178 27.7382C27.7078 27.7216 27.7022 27.7028 27.7015 27.6835C27.7008 27.6641 27.705 27.6449 27.7139 27.6276C28.9999 25.2182 29.694 22.5372 29.739 19.8064Z" fill="#FFA63B"/>
<path d="M47.5617 12.9755C47.5543 12.9582 47.5516 12.9394 47.5538 12.9208C47.556 12.9022 47.563 12.8845 47.5742 12.8695C47.5853 12.8545 47.6003 12.8427 47.6175 12.8352C47.6346 12.8278 47.6534 12.8249 47.672 12.827C50.2608 13.0907 52.8752 12.736 55.3 11.792C55.3175 11.7845 55.3368 11.7817 55.3557 11.784C55.3747 11.7864 55.3926 11.7937 55.4077 11.8054C55.4228 11.817 55.4346 11.8324 55.4417 11.8501C55.4489 11.8678 55.4512 11.8871 55.4484 11.9059C55.1835 14.4947 55.5382 17.1093 56.4834 19.5339C56.4899 19.5514 56.4919 19.5703 56.4891 19.5887C56.4863 19.6072 56.4788 19.6247 56.4675 19.6395C56.4561 19.6544 56.4411 19.666 56.424 19.6735C56.4069 19.6809 56.3882 19.684 56.3696 19.6822C53.7808 19.4172 51.1661 19.772 48.7416 20.7172C48.7244 20.7246 48.7055 20.7273 48.6869 20.7251C48.6683 20.7229 48.6506 20.7159 48.6356 20.7047C48.6206 20.6935 48.6088 20.6786 48.6013 20.6614C48.5939 20.6442 48.5911 20.6254 48.5933 20.6068C48.8603 18.0172 48.5067 15.4012 47.5617 12.9755Z" fill="#6285F9"/>
<path d="M25.9682 111.828C22.6782 111.824 19.5241 110.515 17.1983 108.189C14.8735 105.863 13.5658 102.71 13.562 99.4221V46.8372C13.562 39.7026 18.8612 33.9308 25.3679 33.9308H107.478C113.981 33.9308 119.287 39.7337 119.287 46.8372V65.2154H119.222V99.4324C119.217 102.723 117.907 105.877 115.578 108.202C113.253 110.527 110.1 111.835 106.812 111.839L25.9682 111.828Z" fill="#B8B2B2"/>
<path d="M114.416 46.8372C114.416 42.404 111.311 38.8021 107.516 38.8021H25.3748C21.5384 38.8021 18.4748 42.404 18.4748 46.8372V60.2922H114.423L114.416 46.8372Z" fill="#EA1717"/>
<path d="M114.381 60.337H18.4713V99.4566C18.4714 100.442 18.6659 101.417 19.0436 102.327C19.4213 103.237 19.9748 104.064 20.6724 104.759C21.3682 105.456 22.1948 106.009 23.1047 106.386C24.0147 106.764 24.9901 106.957 25.9751 106.957H106.881C108.87 106.956 110.777 106.166 112.184 104.759C113.591 103.353 114.383 101.446 114.385 99.4566L114.381 60.337Z" fill="white"/>
<path d="M79.4639 52.9644H27.1032C26.2832 52.9561 25.4991 52.6267 24.9193 52.0467C24.34 51.4665 24.0107 50.6827 24.0017 49.8629V48.6277C24.0121 47.8082 24.3412 47.025 24.9193 46.4439C25.4999 45.8652 26.2835 45.5359 27.1032 45.5262H79.4639C80.2825 45.5361 81.0649 45.8654 81.6442 46.4439C82.2233 47.0246 82.5537 47.8078 82.5654 48.6277V49.8629C82.5551 50.6831 82.2245 51.4669 81.6442 52.0467C81.0657 52.6265 80.2828 52.956 79.4639 52.9644Z" fill="#F28C87"/>
<path d="M92.7739 52.9644C93.7735 52.982 94.7391 52.6019 95.4585 51.9077C96.1779 51.2135 96.5922 50.2621 96.6104 49.2626C96.5913 48.2633 96.1767 47.3124 95.4575 46.6185C94.7383 45.9245 93.7732 45.5441 92.7739 45.5607C91.775 45.5441 90.8103 45.9246 90.0917 46.6186C89.373 47.3127 88.9592 48.2636 88.941 49.2626C88.9495 49.7573 89.0555 50.2456 89.2527 50.6994C89.45 51.1533 89.7347 51.5638 90.0906 51.9075C90.4466 52.2513 90.8667 52.5215 91.3271 52.7029C91.7875 52.8842 92.2792 52.9731 92.7739 52.9644Z" fill="#F28C87"/>
<path d="M104.18 52.9644C104.674 52.9731 105.166 52.8842 105.626 52.7029C106.087 52.5215 106.507 52.2513 106.863 51.9075C107.219 51.5638 107.504 51.1532 107.701 50.6994C107.898 50.2456 108.004 49.7573 108.013 49.2626C107.994 48.2636 107.581 47.3127 106.862 46.6186C106.143 45.9246 105.179 45.5441 104.18 45.5607C103.181 45.5441 102.216 45.9246 101.497 46.6186C100.779 47.3127 100.365 48.2636 100.347 49.2626C100.355 49.7573 100.461 50.2456 100.658 50.6994C100.856 51.1532 101.14 51.5638 101.496 51.9075C101.852 52.2513 102.272 52.5215 102.733 52.7029C103.193 52.8842 103.685 52.9731 104.18 52.9644Z" fill="#F28C87"/>
<path d="M52.0295 70.104H106.515" stroke="#D1CCCC" stroke-width="7" stroke-miterlimit="10"/>
<path d="M52.0295 81.6408H106.515" stroke="#D1CCCC" stroke-width="7" stroke-miterlimit="10"/>
<path d="M52.0295 93.1811H106.515" stroke="#D1CCCC" stroke-width="7" stroke-miterlimit="10"/>
<path d="M42.8111 66.8472H27.2861C26.4192 66.8472 25.5878 67.1913 24.9746 67.804C24.3613 68.4166 24.0164 69.2475 24.0155 70.1143C24.0155 70.9818 24.36 71.8136 24.9734 72.427C25.5868 73.0404 26.4186 73.3849 27.2861 73.3849H42.8111C43.6785 73.3849 44.5104 73.0404 45.1237 72.427C45.7371 71.8136 46.0817 70.9818 46.0817 70.1143C46.0807 69.2475 45.7357 68.4166 45.1225 67.804C44.5092 67.1913 43.6779 66.8472 42.8111 66.8472Z" fill="#6285F9"/>
<path d="M42.8111 78.3667H27.2861C26.4189 78.3676 25.5876 78.7125 24.9744 79.3257C24.3613 79.9388 24.0164 80.7703 24.0155 81.6374C24.0155 82.5048 24.36 83.3367 24.9734 83.9501C25.5868 84.5634 26.4186 84.908 27.2861 84.908H42.8111C43.6785 84.908 44.5104 84.5634 45.1237 83.9501C45.7371 83.3367 46.0817 82.5048 46.0817 81.6374C46.0807 80.7703 45.7359 79.9388 45.1227 79.3257C44.5096 78.7125 43.6782 78.3676 42.8111 78.3667Z" fill="#FF615C"/>
<path d="M42.8111 89.907H27.2861C26.4186 89.907 25.5868 90.2516 24.9734 90.865C24.36 91.4783 24.0155 92.3102 24.0155 93.1776C24.0164 94.0448 24.3613 94.8761 24.9744 95.4893C25.5876 96.1024 26.4189 96.4473 27.2861 96.4482H42.8111C43.6782 96.4473 44.5096 96.1024 45.1227 95.4893C45.7359 94.8761 46.0807 94.0448 46.0817 93.1776C46.0817 92.3102 45.7371 91.4783 45.1237 90.865C44.5104 90.2516 43.6785 89.907 42.8111 89.907Z" fill="#40D4B0"/>
<path d="M37.7844 6.17893C37.7903 6.16967 37.7985 6.16205 37.8082 6.15677C37.8178 6.1515 37.8286 6.14877 37.8396 6.14877C37.8506 6.14877 37.8614 6.1515 37.8711 6.15677C37.8807 6.16205 37.8889 6.16967 37.8948 6.17893C38.6898 7.48214 39.7837 8.57726 41.0861 9.37363C41.0954 9.37912 41.103 9.387 41.1084 9.39637C41.1138 9.40575 41.1166 9.41632 41.1166 9.42712C41.1166 9.43791 41.1138 9.44857 41.1084 9.45794C41.103 9.46732 41.0954 9.47511 41.0861 9.4806C39.7837 10.277 38.6898 11.3721 37.8948 12.6753C37.8889 12.6846 37.8807 12.6922 37.8711 12.6975C37.8614 12.7027 37.8506 12.7055 37.8396 12.7055C37.8286 12.7055 37.8178 12.7027 37.8082 12.6975C37.7985 12.6922 37.7903 12.6846 37.7844 12.6753C36.9882 11.3719 35.8931 10.2769 34.5897 9.4806C34.5812 9.47454 34.5742 9.46657 34.5694 9.45727C34.5646 9.44797 34.5621 9.43759 34.5621 9.42712C34.5621 9.41664 34.5646 9.40635 34.5694 9.39705C34.5742 9.38774 34.5812 9.37969 34.5897 9.37363C35.8931 8.57738 36.9882 7.48229 37.7844 6.17893Z" fill="#40D4B0"/>
<path d="M96.293 119.515C96.2985 119.506 96.3063 119.498 96.3156 119.493C96.325 119.487 96.3357 119.484 96.3465 119.484C96.3573 119.484 96.3678 119.487 96.3772 119.493C96.3866 119.498 96.3944 119.506 96.3999 119.515C97.1962 120.817 98.2914 121.911 99.5946 122.706C99.6038 122.712 99.6114 122.72 99.6167 122.73C99.622 122.74 99.6248 122.75 99.6248 122.761C99.6248 122.772 99.622 122.783 99.6167 122.793C99.6114 122.802 99.6038 122.811 99.5946 122.817C98.2912 123.613 97.1961 124.708 96.3999 126.011C96.3944 126.021 96.3866 126.028 96.3772 126.034C96.3678 126.039 96.3573 126.042 96.3465 126.042C96.3357 126.042 96.325 126.039 96.3156 126.034C96.3063 126.028 96.2985 126.021 96.293 126.011C95.4967 124.708 94.4016 123.613 93.0983 122.817C93.089 122.811 93.0814 122.802 93.0761 122.793C93.0708 122.783 93.068 122.772 93.068 122.761C93.068 122.75 93.0708 122.74 93.0761 122.73C93.0814 122.72 93.089 122.712 93.0983 122.706C94.4015 121.911 95.4966 120.817 96.293 119.515Z" fill="#FFBE33"/>
<path d="M82.4342 116.431C82.4458 116.419 82.4602 116.411 82.4759 116.407C82.4915 116.403 82.5081 116.403 82.5238 116.407C82.5395 116.411 82.5538 116.419 82.5653 116.431C82.5768 116.442 82.5852 116.456 82.5896 116.472C83.2033 118.637 84.3245 120.624 85.8602 122.268C85.8716 122.28 85.8796 122.294 85.8836 122.31C85.8875 122.326 85.8872 122.343 85.8827 122.359C85.8781 122.374 85.8695 122.389 85.8576 122.4C85.8458 122.411 85.8312 122.419 85.8153 122.423C83.6511 123.038 81.6643 124.159 80.0192 125.694C80.0075 125.705 79.9929 125.713 79.977 125.717C79.961 125.721 79.9444 125.721 79.9287 125.716C79.9129 125.712 79.8986 125.703 79.8873 125.691C79.8759 125.68 79.8679 125.665 79.864 125.649C79.2506 123.485 78.1306 121.498 76.5969 119.853C76.5864 119.841 76.579 119.827 76.5754 119.811C76.5718 119.796 76.572 119.78 76.5761 119.764C76.5802 119.749 76.5879 119.735 76.5988 119.723C76.6097 119.712 76.6233 119.703 76.6383 119.698C78.8026 119.085 80.7895 117.965 82.4342 116.431Z" fill="#6285F9"/>
<path d="M61.1789 62.238V66.5746C63.034 66.5742 64.8767 66.8784 66.6333 67.4751C68.6874 68.1746 70.5757 69.289 72.1809 70.7492C73.7898 72.207 75.0816 73.9802 75.9759 75.9586C77.8491 80.0655 78.0666 84.7365 76.5831 88.9996C75.4761 92.3265 73.3537 95.2223 70.5146 97.2796C67.7902 99.2487 64.5127 100.305 61.1512 100.298C59.3056 100.292 57.4734 99.9836 55.7278 99.3842C51.4265 97.9212 47.8655 94.8379 45.8022 90.7902C44.7733 88.837 44.1535 86.6947 43.9806 84.4939C43.804 82.2941 44.0776 80.0814 44.7845 77.9907C45.9488 74.6024 48.1858 71.6859 51.1566 69.6831C54.1141 67.6614 57.6102 66.5737 61.1927 66.5608L61.1789 62.238ZM61.1789 62.238C52.2365 62.238 43.6839 67.8029 40.6721 76.6038C36.9047 87.6438 43.2699 99.7188 54.3237 103.514C56.5207 104.27 58.8276 104.658 61.1512 104.663C69.8038 104.663 77.6871 99.1875 80.6817 90.4107C84.4457 79.3707 79.0878 67.1508 68.034 63.3834C65.8268 62.6296 63.5111 62.2427 61.1789 62.238Z" fill="#CB0C14"/>
<path d="M61.1581 67.8822C65.0313 67.8934 68.7515 69.3957 71.5461 72.0774C74.338 74.7628 75.9896 78.4194 76.1587 82.2894C76.324 86.1584 74.9934 89.9425 72.4431 92.8567C69.891 95.7712 66.3139 97.5901 62.4554 97.9352C58.5973 98.2781 54.7552 97.123 51.7258 94.7094C48.7024 92.2916 46.7258 88.8028 46.2058 84.9666C45.6841 81.128 46.6615 77.2359 48.9348 74.0991C51.204 70.965 54.5929 68.8251 58.3981 68.1237C59.3088 67.9587 60.2327 67.8779 61.1581 67.8822ZM61.1581 65.1981C57.5099 65.1944 53.9494 66.3174 50.9634 68.4135C47.9758 70.5071 45.7062 73.4706 44.4636 76.9005C43.2201 80.3354 43.0671 84.0704 44.0255 87.5955C44.9791 91.1164 46.9959 94.2574 49.8008 96.5897C52.6051 98.9245 56.0618 100.337 59.6988 100.633C63.3385 100.928 66.9805 100.093 70.1282 98.2422C73.2762 96.3974 75.7785 93.6264 77.2938 90.3072C78.8082 86.9889 79.2635 83.2847 78.5979 79.6985C77.8359 75.6288 75.676 71.9531 72.4914 69.307C69.308 66.658 65.2996 65.2035 61.1581 65.1946V65.1981Z" fill="#CB0C14"/>
<path d="M49.4006 98.3905C49.3595 97.8244 49.1518 97.283 48.8037 96.8346C48.4557 96.3864 47.9827 96.0515 47.4444 95.872C46.9055 95.6936 46.3258 95.678 45.7781 95.8272C45.2303 95.9765 44.7392 96.2851 44.3671 96.7139L26.0372 116.313C25.7911 116.599 25.6036 116.931 25.4852 117.29C25.367 117.649 25.3201 118.027 25.3472 118.404C25.3757 118.78 25.4778 119.147 25.6474 119.484C25.816 119.821 26.0506 120.122 26.3374 120.367C26.5349 120.539 26.757 120.681 26.9963 120.788C27.0899 120.834 27.1868 120.873 27.2861 120.905C27.8243 121.092 28.406 121.112 28.9559 120.964C29.5066 120.817 30.0006 120.508 30.3738 120.077L48.7037 100.478C48.9519 100.192 49.1418 99.8602 49.2626 99.5014C49.3824 99.1441 49.4293 98.7663 49.4006 98.3905Z" fill="#E80813"/>
<path d="M80.8748 80.4195C80.1085 76.2937 78.1359 72.4877 75.2065 69.4829C72.2787 66.479 68.5254 64.4114 64.4218 63.5421C60.32 62.6669 56.0508 63.0271 52.1536 64.5771C48.2565 66.1311 44.9088 68.8077 42.535 72.2671C40.1606 75.7227 38.864 79.8047 38.809 83.9971C38.7568 88.1919 39.9476 92.3082 42.2314 95.8272C44.5184 99.3442 47.7957 102.105 51.6499 103.762C55.5036 105.423 59.7636 105.904 63.8905 105.142C69.4195 104.11 74.3132 100.926 77.4974 96.2895C80.6795 91.6551 81.8941 85.948 80.8748 80.4195ZM62.7727 99.1047C59.8411 99.6466 56.8147 99.3081 54.0753 98.1317C51.3365 96.9547 49.0084 94.9917 47.3857 92.491C45.7672 89.9902 44.9268 87.0654 44.9707 84.0868C45.0115 81.1067 45.9334 78.2053 47.6203 75.7482C49.307 73.29 51.6857 71.388 54.4548 70.2834C57.2227 69.1763 60.2573 68.917 63.1729 69.5382C66.0812 70.1552 68.7414 71.6198 70.8181 73.7472C72.8993 75.8816 74.3004 78.5855 74.8442 81.5166C75.5651 85.4496 74.6966 89.508 72.4292 92.8015C70.1701 96.0964 66.6982 98.3627 62.7727 99.1047Z" fill="#FF393D"/>
<path d="M102.734 92.0046L114.064 88.4856C114.272 88.42 114.494 88.42 114.702 88.4856L126.029 92.0046C126.249 92.0729 126.442 92.2105 126.578 92.3969C126.714 92.5834 126.786 92.8088 126.784 93.0396V106.15C126.784 107.284 126.486 108.399 125.918 109.381C125.351 110.363 124.534 111.179 123.551 111.745L117.607 115.171C116.626 115.736 115.513 116.033 114.381 116.033C113.249 116.033 112.137 115.736 111.156 115.171L105.211 111.745C104.228 111.179 103.412 110.363 102.845 109.381C102.277 108.399 101.978 107.284 101.979 106.15V93.0396C101.977 92.8089 102.05 92.5838 102.186 92.3974C102.322 92.2111 102.514 92.0734 102.734 92.0046Z" fill="#24BC97"/>
<path d="M122.064 97.0761L114.681 104.459C114.177 104.96 113.495 105.241 112.784 105.241C112.073 105.241 111.391 104.96 110.886 104.459L108.661 102.23" stroke="white" stroke-width="4"/>
</svg>
